<svg width="140" height="149" viewBox="0 0 140 149" fill="none" xmlns="http://www.w3.org/2000/svg">
<g clip-path="url(#clip0_27_540)">
<path d="M136.36 69.3803C126.93 83.4807 106.804 127.089 111.756 143.271L39.5588 143.287C39.5588 143.287 29.1276 135.529 18.9914 122.046C17.1492 119.597 15.3191 116.954 13.5618 114.138C11.6953 111.153 9.91774 107.97 8.30177 104.601C3.59928 94.8295 0.246131 83.5129 0.112813 70.9981C-0.35986 27.6884 37.1752 -12.5633 88.24 3.67939C139.305 19.9221 145.785 55.2799 136.356 69.3762L136.36 69.3803Z" fill="#EAF9F8"/>
<path d="M91.1854 143.779C91.0399 143.779 90.8985 143.715 90.7975 143.594L52.2969 95.7898C52.1272 95.5759 52.1596 95.2653 52.3737 95.0918C52.5878 94.9224 52.8989 94.9546 53.0726 95.1685L91.5732 142.973C91.7469 143.186 91.7105 143.497 91.4964 143.671C91.4035 143.743 91.2944 143.779 91.1854 143.779Z" fill="#E03C03"/>
<path d="M31.463 143.779C31.3539 143.779 31.2448 143.743 31.1519 143.671C30.9378 143.497 30.9054 143.186 31.0751 142.973L69.5757 95.1685C69.7494 94.9546 70.0605 94.9224 70.2746 95.0918C70.4887 95.2653 70.5211 95.5759 70.3514 95.7898L31.8508 143.594C31.7538 143.715 31.6084 143.779 31.463 143.779Z" fill="#FF6224"/>
<path d="M69.9636 143.779C69.8181 143.779 69.6767 143.715 69.5757 143.594L31.0751 95.7898C30.9054 95.5759 30.9378 95.2653 31.1519 95.0918C31.366 94.9224 31.6771 94.9546 31.8508 95.1685L70.3514 142.973C70.5251 143.186 70.4887 143.497 70.2746 143.671C70.1817 143.743 70.0726 143.779 69.9636 143.779Z" fill="#FF6224"/>
<path d="M38.2864 96.75H20.3976C19.6946 96.75 19.125 96.1811 19.125 95.4791C19.125 94.7771 19.6946 94.2083 20.3976 94.2083H38.2864C38.9894 94.2083 39.559 94.7771 39.559 95.4791C39.559 96.1811 38.9894 96.75 38.2864 96.75Z" fill="#E03C03"/>
<path d="M89.7511 96.75H38.6257C37.9228 96.75 37.3531 96.1811 37.3531 95.4791C37.3531 94.7771 37.9228 94.2083 38.6257 94.2083H89.7511V96.7459V96.75Z" fill="#FF6224"/>
<path d="M52.103 119.383C52.103 120.15 51.4808 120.771 50.7132 120.771C49.9456 120.771 49.3235 120.15 49.3235 119.383C49.3235 118.617 49.9456 117.995 50.7132 117.995C51.4808 117.995 52.103 118.617 52.103 119.383Z" fill="#E03C03"/>
<path d="M73.3248 119.383C73.3248 120.15 72.7026 120.771 71.935 120.771C71.1674 120.771 70.5453 120.15 70.5453 119.383C70.5453 118.617 71.1674 117.995 71.935 117.995C72.7026 117.995 73.3248 118.617 73.3248 119.383Z" fill="#FFC947"/>
<path d="M54.8502 39.7191H36.832C35.9418 39.7191 35.2201 40.4398 35.2201 41.3288V54.711C35.2201 55.6001 35.9418 56.3208 36.832 56.3208H54.8502C55.7404 56.3208 56.4621 55.6001 56.4621 54.711V41.3288C56.4621 40.4398 55.7404 39.7191 54.8502 39.7191Z" fill="#20C3C5"/>
<path d="M50.4507 47.0496H49.7841C49.6831 46.6865 49.5296 46.3395 49.3357 46.0249L49.8487 45.5125C50.0467 45.3148 50.0467 45.0001 49.8487 44.8024L49.1256 44.0803C48.9276 43.8826 48.6125 43.8826 48.4146 44.0803L47.8692 44.6249C47.5662 44.4555 47.243 44.3223 46.8996 44.2336V43.4146C46.8996 43.1362 46.6733 42.9143 46.3986 42.9143H45.3725C45.0937 42.9143 44.8715 43.1402 44.8715 43.4146V44.2416C44.5403 44.3264 44.2251 44.4514 43.9302 44.6128L43.3283 44.0117C43.1303 43.814 42.8152 43.814 42.6172 44.0117L41.8941 44.7338C41.6961 44.9315 41.6961 45.2462 41.8941 45.4439L42.4516 46.0007C42.2658 46.2952 42.1203 46.6179 42.0153 46.9568H41.2315C40.9528 46.9568 40.7306 47.1827 40.7306 47.4571V48.4818C40.7306 48.7602 40.9568 48.9821 41.2315 48.9821H41.9183C41.9951 49.3613 42.1244 49.7204 42.3021 50.0553L41.8335 50.5233C41.6355 50.721 41.6355 51.0356 41.8335 51.2333L42.5566 51.9555C42.7546 52.1532 43.0697 52.1532 43.2677 51.9555L43.6757 51.548C44.0151 51.7699 44.3867 51.9393 44.7826 52.0483V52.6171C44.7826 52.8955 45.0089 53.1174 45.2836 53.1174H46.3097C46.5885 53.1174 46.8107 52.8915 46.8107 52.6171V52.0886C47.2228 51.9918 47.6066 51.8345 47.958 51.6247L48.3499 52.016C48.5479 52.2137 48.863 52.2137 49.0609 52.016L49.7841 51.2938C49.982 51.0962 49.982 50.7815 49.7841 50.5838L49.3841 50.1844C49.5821 49.8414 49.7316 49.4703 49.8245 49.0709H50.4466C50.7254 49.0709 50.9476 48.8449 50.9476 48.5706V47.5458C50.9476 47.2675 50.7214 47.0456 50.4466 47.0456L50.4507 47.0496ZM46.3865 50.6887C44.5685 51.0316 43.0051 49.4703 43.3485 47.6548C43.5424 46.6381 44.3585 45.8231 45.3765 45.6295C47.1945 45.2866 48.7579 46.8479 48.4146 48.6634C48.2206 49.6801 47.4046 50.495 46.3865 50.6887Z" fill="white"/>
<path d="M81.9823 30.5488H63.9642C63.074 30.5488 62.3523 31.2695 62.3523 32.1585V45.5408C62.3523 46.4298 63.074 47.1505 63.9642 47.1505H81.9823C82.8726 47.1505 83.5943 46.4298 83.5943 45.5408V32.1585C83.5943 31.2695 82.8726 30.5488 81.9823 30.5488Z" fill="#FF6224"/>
<path d="M69.3858 41.6394C69.2606 41.6394 69.1313 41.587 69.0343 41.4861L66.7962 39.0937C66.6023 38.888 66.6023 38.5491 66.7962 38.3433L69.0747 35.9105C69.2686 35.7048 69.5838 35.7048 69.7777 35.9105C69.9716 36.1163 69.9716 36.4512 69.7777 36.6609L67.8506 38.7185L69.7373 40.7357C69.9312 40.9415 69.9312 41.2764 69.7373 41.4861C69.6403 41.591 69.5151 41.6394 69.3858 41.6394Z" fill="white"/>
<path d="M76.5607 41.6394C76.4355 41.6394 76.3062 41.587 76.2093 41.4861C76.0153 41.2804 76.0153 40.9415 76.2093 40.7357L78.1 38.7185L76.1729 36.6609C75.979 36.4552 75.979 36.1203 76.1729 35.9105C76.3668 35.7048 76.6819 35.7048 76.8758 35.9105L79.1544 38.3433C79.2473 38.4442 79.2998 38.5773 79.2998 38.7185C79.2998 38.8597 79.2473 38.9929 79.1544 39.0937L76.9163 41.4861C76.8193 41.591 76.6941 41.6394 76.5648 41.6394H76.5607Z" fill="white"/>
<path d="M71.8623 42.2971C71.8017 42.2971 71.737 42.285 71.6764 42.2567C71.4219 42.1478 71.3007 41.8371 71.4058 41.5668L73.6277 35.733C73.7328 35.4627 74.0196 35.3296 74.2741 35.4425C74.5286 35.5515 74.6498 35.8621 74.5448 36.1324L72.3228 41.9662C72.2461 42.172 72.0602 42.2971 71.8623 42.2971Z" fill="white"/>
<path d="M54.2079 48.3003H97.5806C97.9523 48.3003 98.2513 48.5988 98.2513 48.97V50.3417H53.5372V48.97C53.5372 48.5988 53.8362 48.3003 54.2079 48.3003Z" fill="white"/>
<path d="M53.5372 50.3377H98.2513V72.8983C98.2513 73.5882 97.6937 74.1449 97.0029 74.1449H54.7856C54.0947 74.1449 53.5372 73.5882 53.5372 72.8983V50.3377Z" fill="#383873"/>
<path d="M96.102 49.3169C96.102 49.4904 95.9606 49.6316 95.7869 49.6316C95.6132 49.6316 95.4718 49.4904 95.4718 49.3169C95.4718 49.1435 95.6132 49.0023 95.7869 49.0023C95.9606 49.0023 96.102 49.1435 96.102 49.3169Z" fill="#FF6224"/>
<path d="M93.9447 49.3169C93.9447 49.4904 93.8033 49.6316 93.6296 49.6316C93.4559 49.6316 93.3145 49.4904 93.3145 49.3169C93.3145 49.1435 93.4559 49.0023 93.6296 49.0023C93.8033 49.0023 93.9447 49.1435 93.9447 49.3169Z" fill="#FF6224"/>
<path d="M91.7833 49.3169C91.7833 49.4904 91.6419 49.6316 91.4682 49.6316C91.2945 49.6316 91.1531 49.4904 91.1531 49.3169C91.1531 49.1435 91.2945 49.0023 91.4682 49.0023C91.6419 49.0023 91.7833 49.1435 91.7833 49.3169Z" fill="#FF6224"/>
<path d="M80.6856 53.5572H55.8561C55.6177 53.5572 55.4238 53.3635 55.4238 53.1255C55.4238 52.8874 55.6177 52.6938 55.8561 52.6938H80.6856C80.9239 52.6938 81.1178 52.8874 81.1178 53.1255C81.1178 53.3635 80.9239 53.5572 80.6856 53.5572Z" fill="#20C3C5"/>
<path d="M80.6856 56.3006H55.8561C55.6177 56.3006 55.4238 56.1069 55.4238 55.8689C55.4238 55.6308 55.6177 55.4372 55.8561 55.4372H80.6856C80.9239 55.4372 81.1178 55.6308 81.1178 55.8689C81.1178 56.1069 80.9239 56.3006 80.6856 56.3006Z" fill="#20C3C5"/>
<path d="M68.8405 59.0481H55.8561C55.6177 59.0481 55.4238 58.8544 55.4238 58.6164C55.4238 58.3783 55.6177 58.1847 55.8561 58.1847H68.8405C69.0788 58.1847 69.2727 58.3783 69.2727 58.6164C69.2727 58.8544 69.0788 59.0481 68.8405 59.0481Z" fill="#20C3C5"/>
<path d="M80.6856 64.5429H55.8561C55.6177 64.5429 55.4238 64.3493 55.4238 64.1113C55.4238 63.8732 55.6177 63.6796 55.8561 63.6796H80.6856C80.9239 63.6796 81.1178 63.8732 81.1178 64.1113C81.1178 64.3493 80.9239 64.5429 80.6856 64.5429Z" fill="#FF6224"/>
<path d="M68.8405 67.2863H55.8561C55.6177 67.2863 55.4238 67.0927 55.4238 66.8547C55.4238 66.6166 55.6177 66.423 55.8561 66.423H68.8405C69.0788 66.423 69.2727 66.6166 69.2727 66.8547C69.2727 67.0927 69.0788 67.2863 68.8405 67.2863Z" fill="#FF6224"/>
<path d="M68.8405 70.0338H55.8561C55.6177 70.0338 55.4238 69.8402 55.4238 69.6022C55.4238 69.3641 55.6177 69.1705 55.8561 69.1705H68.8405C69.0788 69.1705 69.2727 69.3641 69.2727 69.6022C69.2727 69.8402 69.0788 70.0338 68.8405 70.0338Z" fill="#20C3C5"/>
<path d="M80.6855 59.0481H71.3533C71.1149 59.0481 70.921 58.8544 70.921 58.6164C70.921 58.3783 71.1149 58.1847 71.3533 58.1847H80.6855C80.9239 58.1847 81.1178 58.3783 81.1178 58.6164C81.1178 58.8544 80.9239 59.0481 80.6855 59.0481Z" fill="white"/>
<path d="M93.0074 52.8834L86.4101 59.4717C86.2405 59.6411 85.9698 59.6411 85.8001 59.4717C85.6304 59.3022 85.6304 59.0279 85.8001 58.8625L92.3973 52.2742C92.567 52.1048 92.8417 52.1048 93.0074 52.2742C93.177 52.4437 93.177 52.718 93.0074 52.8834Z" fill="#FF6224"/>
<path d="M93.1934 66.2432C93.6891 64.1553 92.3962 62.0615 90.3055 61.5664C88.2148 61.0713 86.1181 62.3625 85.6224 64.4503C85.1266 66.5381 86.4196 68.632 88.5102 69.1271C90.6009 69.6222 92.6976 68.331 93.1934 66.2432Z" fill="#FF6224"/>
<path d="M88.8947 68.0529C88.8947 69.2673 87.909 70.2517 86.693 70.2517C85.477 70.2517 84.4912 69.2673 84.4912 68.0529C84.4912 66.8385 85.477 65.8541 86.693 65.8541C87.909 65.8541 88.8947 66.8385 88.8947 68.0529Z" fill="#20C3C5"/>
<path d="M53.5372 71.7364V79.5914L60.7647 72.3698" fill="#383873"/>
<path d="M45.8411 81.7136H61.7019L67.4386 92.7398H51.5778L45.8411 81.7136Z" fill="#86BFBC"/>
<path d="M51.8969 91.9248L47.146 82.7948C47.045 82.6052 47.1864 82.3752 47.4005 82.3752H61.1241C61.2332 82.3752 61.3302 82.4358 61.3787 82.5286L66.1296 91.6585C66.2306 91.8481 66.0892 92.0781 65.8751 92.0781H52.1514C52.0424 92.0781 51.9454 92.0176 51.8969 91.9248Z" fill="white"/>
<path d="M64.4249 92.7397H51.5779V94.2123H64.4249V92.7397Z" fill="#B8E3E2"/>
<path d="M75.4619 92.7397H62.7846C62.3766 92.7397 62.0493 93.0706 62.0493 93.474C62.0493 93.8815 62.3806 94.2083 62.7846 94.2083H75.4619C75.8699 94.2083 76.1972 93.8775 76.1972 93.474C76.1972 93.0665 75.8659 92.7397 75.4619 92.7397Z" fill="#9FCCC9"/>
<path d="M51.5778 92.7398L45.8411 81.7136L45.5543 81.9275C45.3685 82.0646 45.3119 82.3188 45.421 82.5245L51.5778 94.2083V92.7357V92.7398Z" fill="#B8E3E2"/>
<path d="M57.3509 93.4257H55.9369V93.672H57.3509V93.4257Z" fill="#9FCCC9"/>
<path d="M59.1285 93.4257H57.7145V93.672H59.1285V93.4257Z" fill="#9FCCC9"/>
<path d="M60.9101 93.4257H59.4961V93.672H60.9101V93.4257Z" fill="#9FCCC9"/>
<path d="M80.4958 114.316C80.4958 114.316 67.3377 124.547 65.2531 127.145C64.4653 128.13 63.0958 129.852 61.6737 131.62C59.3386 134.52 56.8622 137.546 56.5672 137.619C56.0986 137.736 52.1516 134.734 52.0304 134.089C51.9577 133.685 55.5532 127.525 58.664 122.57C60.5587 119.561 62.2716 116.991 62.8736 116.434C64.4653 114.961 74.25 109.785 74.25 109.785L80.4958 114.316Z" fill="#383873"/>
<g style="mix-blend-mode:overlay" opacity="0.15">
<path d="M55.3876 135.436C55.3876 135.436 67.6771 117.963 73.8501 115.022" stroke="#303030" stroke-width="0.82" stroke-miterlimit="10" stroke-linecap="round"/>
</g>
<path d="M94.2073 69.4529C94.0699 69.7716 93.9083 70.0984 93.7306 70.4373C92.7691 72.273 93.4801 74.1127 92.3812 74.5807C92.3166 74.6089 92.2439 74.6331 92.159 74.6493C90.7451 74.964 87.4848 73.0799 87.3394 72.1398C87.198 71.1998 88.3453 69.586 87.3394 69.3924C86.3335 69.1987 85.7921 70.8851 85.7921 70.8851C84.9639 70.9699 84.673 69.586 83.3156 69.586C83.1257 69.586 82.9359 69.6143 82.7541 69.6587C82.1158 69.816 81.5583 70.2114 81.1987 70.514C80.9361 70.7359 80.7826 70.9093 80.7826 70.9093C80.7826 70.9093 79.5746 70.1468 79.6312 68.646C79.7282 66.2657 80.6048 64.5269 82.7258 64.1759C82.9601 61.5293 85.1417 60.1132 88.0585 60.0244C90.6158 59.9437 90.9996 62.2393 91.0561 62.8122C91.0319 62.3846 90.9147 60.9846 90.3047 60.0244C91.5854 59.9679 92.7125 60.8797 92.4176 63.8531C92.7125 62.9696 93.7427 62.4088 94.5386 63.0583C93.8033 63.0583 93.0963 64.2929 93.0963 64.2929C93.0963 64.2929 93.9609 64.8456 94.5466 65.8663C95.0355 66.7095 94.8496 67.9521 94.1992 69.4569L94.2073 69.4529Z" fill="#382424"/>
<path d="M92.3853 74.5847L92.353 75.0204L92.2399 76.5656C92.2399 76.5656 89.8846 78.5748 88.5514 76.5656C88.5434 76.5535 88.5353 76.5374 88.5232 76.5253C88.1111 75.912 87.7354 75.6982 87.396 75.6579C86.6567 75.5691 86.0628 76.2872 85.4488 75.5086C83.6914 73.2816 82.9884 70.6955 82.7622 69.6627C82.944 69.6183 83.1339 69.5901 83.3238 69.5901C84.6812 69.5901 84.9721 70.9739 85.8002 70.8892C85.8002 70.8892 86.3416 69.2028 87.3475 69.3964C88.3535 69.5901 87.2061 71.2038 87.3475 72.1439C87.4122 72.5634 88.0949 73.1726 88.9595 73.685C89.9695 74.2902 91.2259 74.7663 92.0217 74.6775C92.0702 74.6694 92.1187 74.6654 92.1631 74.6533C92.2439 74.6371 92.3167 74.6089 92.3853 74.5847Z" fill="#FFAD94"/>
<g style="mix-blend-mode:overlay" opacity="0.25">
<path d="M92.7489 77.4572C91.6864 78.1794 89.7432 78.3004 89.7432 78.3004L88.1515 78.0664C88.1515 78.0664 87.4849 77.1022 87.796 76.5656C87.8566 76.4607 88.006 76.3155 88.2161 76.142C88.6444 75.791 89.3311 75.3432 90.0422 74.972C90.7774 74.5928 91.5329 74.2902 92.0783 74.2579C93.4155 74.1813 93.8074 76.731 92.7449 77.4572H92.7489Z" fill="#303030"/>
</g>
<path d="M92.4378 103.217C90.0704 103.673 85.0609 102.281 82.6652 101.204C81.9582 100.885 81.4735 100.595 81.3603 100.393C80.8998 99.5821 81.3603 98.9648 82.5036 96.3949C82.6329 96.1044 82.7662 95.7897 82.9117 95.4508C83.6873 93.6313 83.6873 89.7502 83.6873 86.4056C83.6793 83.5412 83.6631 81.0721 84.1196 80.6323C85.1094 79.6802 90.0422 76.5656 90.0422 76.5656L91.0239 81.6772C91.0239 81.6772 91.5814 84.2714 92.1631 87.6603C93.2418 93.8976 94.4255 102.834 92.4378 103.217Z" fill="#20C3C5"/>
<path d="M94.0861 105.489C94.0861 105.723 91.7267 111.213 89.7512 112C87.7757 112.787 75.8579 111.919 75.8579 111.919L69.9636 115.768L71.1958 127.359L72.0563 135.436L72.0846 135.698C70.2828 136.872 65.7419 137.191 65.253 136.179V136.17C64.7804 135.15 57.5529 113.416 60.3809 109.648C63.2088 105.884 81.3562 100.389 81.3562 100.389C81.8289 100.688 82.3783 100.962 82.9762 101.2C84.9922 102.027 87.5575 102.543 89.5048 102.846C90.2562 102.963 90.9147 103.048 91.4157 103.108C92.0499 103.185 92.4337 103.213 92.4337 103.213C92.4337 103.213 94.082 105.251 94.082 105.489H94.0861Z" fill="#383873"/>
<path d="M72.832 143.271H57.5085C57.4318 143.001 57.5368 142.726 57.7671 142.448C58.3892 141.702 59.9446 140.951 61.4474 140.306C62.8735 139.692 64.2431 139.164 64.6996 138.801C65.7823 137.946 65.2813 136.283 65.2531 136.178C65.4187 136.517 66.0449 136.711 66.869 136.768C68.4931 136.885 70.8888 136.481 72.0846 135.702L72.0563 135.44C72.5128 136.312 72.727 140.62 72.7997 142.452C72.8199 142.956 72.828 143.275 72.828 143.275L72.832 143.271Z" fill="#0C2059"/>
<path d="M66.869 136.764C66.8245 137.494 66.7155 138.676 66.5054 138.991C66.1903 139.463 62.8129 141.109 62.3443 140.951C62.0413 140.85 61.6696 140.524 61.4474 140.302C62.8735 139.689 64.243 139.16 64.6995 138.797C65.7822 137.942 65.2813 136.279 65.253 136.175C65.4186 136.513 66.0448 136.707 66.869 136.764Z" fill="#2E4780"/>
<path d="M72.832 143.271H57.5085C57.4318 143.001 57.5368 142.726 57.7671 142.448H72.8037C72.8239 142.952 72.832 143.271 72.832 143.271Z" fill="#2E4780"/>
<path d="M56.5672 137.619C56.5672 137.619 55.4037 140.685 54.3937 142.303C53.9938 142.948 53.614 143.368 53.3474 143.267C52.4061 142.912 42.9364 134.871 43.8414 134.286C43.9747 134.202 44.1848 134.141 44.4514 134.109C45.2756 134.004 46.6411 134.117 47.9015 134.246C48.9842 134.359 49.9942 134.48 50.5194 134.48C51.8566 134.48 52.0303 134.089 52.0303 134.089C52.0586 134.242 52.3131 134.536 52.6848 134.896C53.8564 136.005 56.2076 137.708 56.5672 137.619Z" fill="#0C2059"/>
<path d="M52.6848 134.896C50.677 136.223 48.5843 135.424 48.1722 135.122C47.8692 134.9 47.8692 134.488 47.9015 134.25C48.9842 134.363 49.9942 134.484 50.5194 134.484C51.8566 134.484 52.0303 134.093 52.0303 134.093C52.0586 134.246 52.3131 134.541 52.6848 134.9V134.896Z" fill="#2E4780"/>
<path d="M54.3937 142.307C53.9938 142.952 53.614 143.372 53.3474 143.271C52.4061 142.916 42.9364 134.875 43.8414 134.29C43.9747 134.206 44.1848 134.145 44.4514 134.113L54.3977 142.307H54.3937Z" fill="#2E4780"/>
<path d="M82.6692 93.1997C81.9299 94.2285 80.6008 95.8019 79.51 95.6445C79.4696 95.6365 79.4292 95.6324 79.3726 95.6203C77.288 95.2532 65.0389 92.187 64.4612 92.07C63.8714 91.953 59.7506 91.9167 59.985 91.481C60.2193 91.0493 62.5786 89.6776 63.2048 89.7099C63.835 89.7422 66.3115 90.4603 68.7839 90.3796C71.2604 90.3029 77.7405 90.3796 77.7405 90.3796L78.0556 89.839L78.5202 89.0402C78.3909 91.4366 81.2835 93.3933 82.6692 93.1956V93.1997Z" fill="#FFAD94"/>
<g style="mix-blend-mode:overlay" opacity="0.15">
<path d="M82.6693 102.136C82.6693 102.136 82.1037 105.137 84.3054 106.138" stroke="#303030" stroke-width="0.82" stroke-miterlimit="10" stroke-linecap="round"/>
</g>
<g style="mix-blend-mode:overlay" opacity="0.15">
<path d="M81.5138 104.548C81.5138 104.548 66.9619 110.745 66.263 112.67C65.5641 114.59 69.9636 135.436 69.9636 135.436" stroke="#303030" stroke-width="0.82" stroke-miterlimit="10" stroke-linecap="round"/>
</g>
<g style="mix-blend-mode:overlay" opacity="0.15">
<path d="M94.086 105.489C94.086 105.723 91.7267 111.213 89.7512 112C87.7757 112.787 75.8578 111.919 75.8578 111.919L69.9636 115.768L71.1958 127.359C71.1958 127.359 68.7072 114.122 68.7072 113.255C68.7072 112.517 85.1659 107.788 89.5047 102.846C91.2056 103.112 92.4337 103.213 92.4337 103.213C92.4337 103.213 94.082 105.25 94.082 105.489H94.086Z" fill="#303030"/>
</g>
<g style="mix-blend-mode:overlay" opacity="0.25">
<path d="M86.3253 91.4447C85.3032 92.889 83.6549 94.7287 82.4995 96.3909C82.6288 96.1004 82.7621 95.7857 82.9075 95.4468C83.6832 93.6273 83.6832 89.7462 83.6832 86.4016L87.2101 84.0697C87.2101 84.0697 87.9736 89.1087 86.3253 91.4447Z" fill="#303030"/>
</g>
<path d="M83.3116 92.7558C83.158 92.893 83.0045 93.0342 82.847 93.1633C82.7904 93.1835 82.7298 93.1956 82.6652 93.2037C81.2795 93.3973 78.3869 91.4446 78.5162 89.0482C78.5242 88.8707 78.6697 88.5116 78.8999 88.0476C80.0837 85.6633 83.6469 80.358 84.3013 80.6001C84.3013 80.6001 86.5879 80.9551 87.2101 84.0737C87.7918 87.0027 85.6911 90.5571 83.3116 92.7599V92.7558Z" fill="#169799"/>
<g style="mix-blend-mode:overlay" opacity="0.25">
<path d="M91.4198 103.108C90.9188 103.048 90.2603 102.963 89.5089 102.846C87.5576 102.543 84.9963 102.023 82.9803 101.2C84.7579 101.135 88.5635 99.9694 89.0241 91.2671C89.2342 92.897 89.5452 94.5834 89.9816 96.3101C90.5674 98.6057 91.1208 101.026 91.4198 103.108Z" fill="#303030"/>
</g>
<g style="mix-blend-mode:overlay" opacity="0.25">
<path d="M90.4785 74.4072C90.2967 74.617 90.1553 74.8107 90.0462 74.972C89.3352 75.3432 88.6484 75.791 88.2202 76.142C87.9212 75.8152 87.6465 75.6861 87.392 75.6579L88.9595 73.6851C89.4362 73.9715 89.9694 74.2257 90.4825 74.4072H90.4785Z" fill="#303030"/>
</g>
<g style="mix-blend-mode:overlay" opacity="0.25">
<path d="M82.6692 93.1997C81.9299 94.2284 80.6008 95.8019 79.51 95.6445C79.4696 95.6365 79.4292 95.6324 79.3726 95.6203C78.0233 93.6717 77.9748 91.1179 78.0516 89.843L78.5162 89.0442C78.3869 91.4406 81.2795 93.3973 82.6652 93.1997H82.6692Z" fill="#303030"/>
</g>
<g style="mix-blend-mode:overlay" opacity="0.25">
<path d="M94.2073 69.4529C94.07 69.7716 93.9084 70.0984 93.7306 70.4373C93.2579 71.337 93.1933 72.2367 93.1125 72.979C92.9549 72.858 92.7933 72.745 92.6317 72.6482C91.6096 73.2574 90.9228 73.8868 90.4784 74.4032C89.0362 73.8908 87.4445 72.7894 87.3475 72.1399C87.2061 71.1998 88.3534 69.5861 87.3475 69.3924C86.3416 69.1987 85.8002 70.8851 85.8002 70.8851C84.972 70.9699 84.6811 69.5861 83.3237 69.5861C83.1338 69.5861 82.944 69.6143 82.7622 69.6587C82.1239 69.816 81.5663 70.2114 81.2068 70.514C81.2068 70.514 82.7339 68.3717 85.1336 68.8034C85.1336 68.8034 84.7821 68.1377 83.1702 68.2143C86.5476 67.1129 88.709 67.5487 89.7513 68.763C90.5996 69.7555 92.5954 70.986 94.2154 69.4489L94.2073 69.4529Z" fill="#303030"/>
</g>
<path d="M101.079 115.768H89.2906C89.2906 115.768 98.6431 113.021 98.6431 94.5027C98.6431 94.2647 98.6431 94.0307 98.6431 93.7967C98.5461 81.419 95.9 74.5968 92.6357 72.6482C93.6578 72.043 95.0152 71.4661 96.813 71.0667C97.5968 70.8891 98.4613 70.7479 99.4147 70.6471C107.487 69.824 113.934 72.983 114.702 76.5616C115.465 80.1361 110.747 115.768 101.087 115.768H101.079Z" fill="#B8E3E2"/>
<path d="M98.6431 94.5027C98.6431 113.021 89.2907 115.768 89.2907 115.768H69.9636L70.7676 115.195L75.8579 111.919L86.0709 111.213C86.6203 108.938 88.1151 108.861 90.3936 108.623C91.7187 108.486 91.848 106.251 91.444 103.298C91.1491 101.172 90.5794 98.6703 89.9775 96.3061C89.5412 94.5794 89.226 92.893 89.02 91.2631C88.7736 89.3588 88.6645 87.5393 88.6524 85.8246C88.6241 81.9233 89.0968 78.5868 89.6018 76.1742C89.6462 75.9402 89.6987 75.7143 89.7472 75.5005C89.7472 75.4924 89.7472 75.4844 89.7472 75.4763C89.7916 75.3754 89.9936 74.9599 90.4703 74.4031C90.9147 73.8827 91.6015 73.2493 92.6236 72.6441C92.7852 72.7409 92.9468 72.8539 93.1044 72.9749C96.1424 75.2867 98.5381 82.0322 98.631 93.7926C98.631 94.0266 98.631 94.2606 98.631 94.4987L98.6431 94.5027Z" fill="#86BFBC"/>
<path d="M94.9143 143.271H81.0008C80.5241 143.271 80.318 142.67 80.6937 142.375L84.1762 139.656C85.7194 138.446 86.6244 136.594 86.6244 134.637V115.772H89.2948V134.637C89.2948 136.594 90.1957 138.45 91.743 139.656L95.2214 142.375C95.5971 142.67 95.391 143.271 94.9143 143.271Z" fill="#B8E3E2"/>
<g style="mix-blend-mode:overlay" opacity="0.25">
<path d="M105.527 71.3611C105.527 71.3611 105.628 71.6193 105.793 72.1398" stroke="#303030" stroke-width="0.82" stroke-miterlimit="10" stroke-linecap="round"/>
<path d="M106.262 73.7455C106.735 75.5166 107.349 78.2721 107.838 82.0282C109.102 91.7714 107.818 105.452 99.3339 114.114" stroke="#303030" stroke-width="0.82" stroke-miterlimit="10" stroke-linecap="round"/>
<path d="M98.732 114.707C98.534 114.897 98.332 115.082 98.126 115.268" stroke="#303030" stroke-width="0.82" stroke-miterlimit="10" stroke-linecap="round"/>
</g>
<g style="mix-blend-mode:overlay" opacity="0.15">
<path d="M89.2906 115.768V120.92C88.3655 121.4 87.4242 121.772 86.6202 122.042V115.768H89.2906Z" fill="#303030"/>
</g>
<g style="mix-blend-mode:overlay" opacity="0.15">
<path d="M92.9872 107.764C92.357 109.725 88.4342 109.374 87.9575 110.826C86.9475 113.904 86.386 112.549 82.5036 112.944C80.2816 113.17 78.6697 114.59 77.6961 115.772H69.9677L70.7716 115.199L75.8619 111.924L86.0749 111.217C86.6243 108.942 88.1191 108.865 90.3976 108.627C91.7227 108.49 91.852 106.255 91.448 103.302C91.1531 101.176 90.5835 98.6744 89.9815 96.3102C89.5452 94.5835 89.2301 92.8971 89.024 91.2672C88.7776 89.3629 88.6685 87.5434 88.6564 85.8287C90.1673 93.6959 93.4558 106.312 92.9872 107.764Z" fill="#303030"/>
</g>
<g style="mix-blend-mode:overlay" opacity="0.15">
<path d="M98.6431 94.5027C98.6431 94.2647 98.6431 94.0307 98.6431 93.7967C98.5461 81.419 95.9 74.5968 92.6357 72.6482C93.6578 72.043 95.0152 71.4661 96.813 71.0667C96.2757 71.8413 95.7101 73.0072 95.9767 74.2539C96.4494 76.4567 101.794 84.929 99.75 98.5049C98.2755 108.301 98.7643 113.396 100.304 115.768H89.2947C89.2947 115.768 98.6471 113.021 98.6471 94.5027H98.6431Z" fill="#303030"/>
</g>
<g style="mix-blend-mode:overlay" opacity="0.25">
<path d="M31.1963 84.4166C31.1882 84.8443 31.1519 85.2517 31.0711 85.6108H27.2776C26.1625 84.8725 24.3446 83.408 23.2538 81.2133C24.2678 82.3147 26.0009 83.6581 27.7664 84.0696C29.3056 84.4247 30.453 84.2754 31.1963 84.4166Z" fill="#303030"/>
</g>
<path d="M40.0075 69.3802C39.5833 70.9174 37.6441 73.8948 35.8706 77.086C33.9314 80.5678 32.1983 84.2956 32.877 86.6638C33.0466 87.2569 33.1234 87.6926 33.1234 88.0073C33.1315 89.036 32.3477 88.7173 31.5559 88.1323C30.7479 87.5352 29.9318 86.6638 29.9318 86.6638L29.9924 82.0726C29.9924 82.0726 27.3867 79.6802 29.5279 74.4515C29.6652 74.1207 29.8187 73.7778 29.9924 73.4228C32.9376 67.48 37.3573 61.2428 33.1719 59.4757C38.949 59.1207 40.8922 66.1729 40.0075 69.3843V69.3802Z" fill="#20C3C5"/>
<g style="mix-blend-mode:overlay" opacity="0.53">
<path d="M33.1719 59.4677C35.2888 59.9235 36.5129 62.0416 36.7472 64.0669C36.8603 65.3216 36.4321 66.5441 36.0241 67.7019C34.4849 71.8251 32.1094 75.6054 30.7924 79.8093C30.5136 80.8179 30.2227 81.9516 30.558 82.9602C30.5904 83.0449 30.5419 83.1418 30.457 83.17C30.3722 83.1982 30.2753 83.1539 30.247 83.0691C29.8955 81.9476 30.2106 80.8018 30.5176 79.7246C31.8953 75.5207 34.3152 71.7687 35.911 67.6576C36.3271 66.5078 36.7674 65.3095 36.6705 64.075C36.4644 62.0618 35.2767 59.9437 33.1719 59.4677Z" fill="#303030"/>
</g>
<path d="M37.3532 78.6554C35.5878 83.3031 37.3532 86.8332 34.703 87.3335C33.491 87.5634 32.9537 86.6678 32.7315 85.6229C32.4689 84.3883 32.6427 82.9521 32.6427 82.9521C32.6427 82.9521 33.0911 81.8023 34.0364 80.6888C34.8081 79.781 35.9029 78.8975 37.3532 78.6594V78.6554Z" fill="#169799"/>
<path d="M31.1964 84.4166C31.1883 85.4978 30.9419 86.4177 30.4409 86.8978C30.3924 86.9462 30.3399 86.9906 30.2955 87.0269C29.0431 88.0395 28.2432 86.1837 28.2432 86.1837C28.2432 86.1837 24.9102 84.5417 23.2579 81.2092C21.9934 78.6514 21.7106 75.089 24.6881 70.5139C25.1244 73.7737 26.9141 75.9927 28.6876 78.0987C28.9098 78.3649 29.1279 78.6231 29.3461 78.8854C30.5742 80.3539 31.2166 82.6132 31.2004 84.4126L31.1964 84.4166Z" fill="#B8E3E2"/>
<g style="mix-blend-mode:overlay" opacity="0.53">
<path d="M24.6881 70.5179C24.1589 73.2775 24.2477 76.3639 25.7708 78.8007C26.8656 80.6525 28.7321 81.9637 29.6936 83.9163C30.0087 84.582 30.1541 85.3405 30.0935 86.0828C30.0855 86.1756 30.0047 86.2402 29.9158 86.2321C29.8229 86.224 29.7542 86.1433 29.7663 86.0505C29.9966 80.955 22.6277 80.6847 24.6881 70.5139V70.5179Z" fill="#303030"/>
</g>
<g style="mix-blend-mode:overlay" opacity="0.25">
<path d="M37.3572 78.6554C35.4342 80.9913 33.5395 83.6581 33.0426 86.688C33.0143 86.8978 32.6871 86.8574 32.7154 86.6396C33.3415 83.5371 35.3171 80.9671 37.3572 78.6554Z" fill="#303030"/>
</g>
<path d="M36.2827 86.7727L35.1515 93.7079C35.0949 93.9984 34.8404 94.2082 34.5415 94.2082H27.4958C27.1968 94.2082 26.9423 93.9984 26.8858 93.7079L25.9647 88.0799L25.7546 86.7767C25.6859 86.3975 25.9768 86.0465 26.3646 86.0465H35.6726C36.0605 86.0465 36.3513 86.3975 36.2827 86.7767V86.7727Z" fill="#B8E3E2"/>
<path d="M37.3532 88.1888H24.684L25.0193 86.3007C25.092 85.9053 25.4354 85.6149 25.8394 85.6149H36.2018C36.6018 85.6149 36.9492 85.9053 37.0179 86.3007L37.3532 88.1888Z" fill="#86BFBC"/>
<g style="mix-blend-mode:overlay" opacity="0.25">
<path d="M32.6427 82.9521C32.6427 82.9521 32.469 84.3803 32.7276 85.6148H31.0712C31.152 85.2558 31.1884 84.8483 31.1964 84.4206C31.2126 82.6213 30.5662 80.362 29.3421 78.8935C29.1239 78.6312 28.9058 78.3771 28.6836 78.1108C28.7119 77.0941 28.9422 75.8797 29.5239 74.4515C29.6209 76.1178 30.0289 79.0185 31.6974 79.3251C32.9619 79.5551 34.6142 78.3004 35.8706 77.086C35.2041 78.2762 34.5698 79.4986 34.0406 80.6888C33.0952 81.8063 32.6468 82.9521 32.6468 82.9521H32.6427Z" fill="#303030"/>
</g>
<g style="mix-blend-mode:overlay" opacity="0.25">
<path d="M31.7054 94.2123H27.4998C27.2009 94.2123 26.9464 94.0025 26.8898 93.712L25.9889 88.1929H29.6248C29.536 88.9675 29.4269 90.4078 29.7016 91.5294C29.9157 92.4169 30.6954 93.5587 31.7094 94.2163L31.7054 94.2123Z" fill="#303030"/>
</g>
<path d="M63.5684 20.4909H45.5503C44.66 20.4909 43.9384 21.2116 43.9384 22.1006V35.4829C43.9384 36.3719 44.66 37.0926 45.5503 37.0926H63.5684C64.4587 37.0926 65.1803 36.3719 65.1803 35.4829V22.1006C65.1803 21.2116 64.4587 20.4909 63.5684 20.4909Z" fill="#383873"/>
<path d="M48.8832 26.361V28.1482C48.8832 28.2895 49.0004 28.4065 49.1418 28.4065H50.1316C50.273 28.4065 50.3901 28.2895 50.3901 28.1482V26.361C50.3901 26.2198 50.5073 26.1028 50.6487 26.1028H50.7456C50.887 26.1028 51.0042 26.2198 51.0042 26.361V31.2185C51.0042 31.3597 50.887 31.4767 50.7456 31.4767H50.6487C50.5073 31.4767 50.3901 31.3597 50.3901 31.2185V29.2254C50.3901 29.0842 50.273 28.9672 50.1316 28.9672H49.1418C49.0004 28.9672 48.8832 29.0842 48.8832 29.2254V31.2185C48.8832 31.3597 48.7661 31.4767 48.6247 31.4767H48.5277C48.3863 31.4767 48.2692 31.3597 48.2692 31.2185V26.361C48.2692 26.2198 48.3863 26.1028 48.5277 26.1028H48.6247C48.7661 26.1028 48.8832 26.2198 48.8832 26.361Z" fill="white"/>
<path d="M52.3334 26.6555H51.8688C51.7274 26.6555 51.6102 26.5385 51.6102 26.3973V26.365C51.6102 26.2238 51.7274 26.1068 51.8688 26.1068H53.9292C54.0706 26.1068 54.1877 26.2238 54.1877 26.365V26.3973C54.1877 26.5385 54.0706 26.6555 53.9292 26.6555H53.4646C53.3232 26.6555 53.206 26.7725 53.206 26.9137V31.2225C53.206 31.3637 53.0888 31.4807 52.9474 31.4807H52.8505C52.7091 31.4807 52.5919 31.3637 52.5919 31.2225V26.9137C52.5919 26.7725 52.4748 26.6555 52.3334 26.6555Z" fill="white"/>
<path d="M58.0175 29.1649C57.9771 28.4549 57.9367 27.6641 57.961 27.0589H57.9287C57.8075 27.656 57.6661 28.2935 57.4964 28.9269L56.8338 31.4484H56.442L55.8117 29.0318C55.634 28.3459 55.4764 27.6843 55.3714 27.063H55.3471C55.3471 27.6923 55.3148 28.4428 55.2825 29.2093L55.1896 31.2346C55.1815 31.3718 55.0684 31.4807 54.931 31.4807H54.9027C54.7533 31.4807 54.6361 31.3556 54.6442 31.2063L54.931 26.3489C54.9391 26.2117 55.0522 26.1068 55.1896 26.1068H55.4077C55.5249 26.1068 55.6299 26.1875 55.6582 26.3005L56.24 28.5638C56.4218 29.2738 56.5591 29.7983 56.6722 30.4156H56.6965C56.8015 29.8024 56.9187 29.29 57.0964 28.5638L57.654 26.3045C57.6822 26.1875 57.7873 26.1068 57.9044 26.1068H58.1428C58.2801 26.1068 58.3933 26.2157 58.4013 26.3529L58.6841 31.2104C58.6922 31.3597 58.5751 31.4847 58.4256 31.4847H58.3731C58.2357 31.4847 58.1185 31.3758 58.1145 31.2386L58.0135 29.173L58.0175 29.1649Z" fill="white"/>
<path d="M59.7992 26.1028H59.8962C60.0376 26.1028 60.1547 26.2198 60.1547 26.361V30.702C60.1547 30.8433 60.2719 30.9603 60.4133 30.9603H61.4111C61.5525 30.9603 61.6697 31.0773 61.6697 31.2185C61.6697 31.3597 61.5525 31.4767 61.4111 31.4767H59.7992C59.6578 31.4767 59.5406 31.3597 59.5406 31.2185V26.361C59.5406 26.2198 59.6578 26.1028 59.7992 26.1028Z" fill="white"/>
<path d="M71.7815 21.9111C72.4562 21.9111 72.6137 21.4592 72.6137 21.0558C72.6137 20.7007 72.5774 20.3578 72.541 20.0149C72.5047 19.6477 72.4683 19.3169 72.4683 18.9377C72.4683 17.8363 73.143 17.3723 74.0116 17.3723H74.157V18.0098H73.9712C73.4581 18.0098 73.248 18.3769 73.248 18.9296C73.248 19.2604 73.2844 19.567 73.3207 19.8616C73.345 20.1803 73.3813 20.4748 73.3813 20.7693C73.3934 21.7255 73.0622 22.0563 72.537 22.2015V22.2257C73.0622 22.3831 73.3934 22.7139 73.3813 23.6822C73.3813 23.9888 73.345 24.2954 73.3207 24.602C73.2844 24.9087 73.248 25.2153 73.248 25.5461C73.248 26.0988 73.4338 26.478 73.9833 26.478H74.153V27.1155H73.9954C73.1874 27.1155 72.4643 26.712 72.4643 25.5501C72.4643 25.183 72.5006 24.8159 72.537 24.4608C72.5733 24.1058 72.6097 23.7508 72.6097 23.4078C72.6097 23.0165 72.4521 22.5404 71.7775 22.5404V21.9272L71.7815 21.9111Z" fill="#383873"/>
<path d="M84.281 22.5243C83.6063 22.5243 83.4488 23.0003 83.4488 23.3917C83.4488 23.7346 83.4851 24.0896 83.5215 24.4447C83.5579 24.7997 83.5942 25.1668 83.5942 25.534C83.5942 26.6959 82.8711 27.0993 82.0631 27.0993H81.9055V26.4619H82.0752C82.6287 26.4014 82.8105 26.0826 82.8105 25.5299C82.8105 25.1991 82.7741 24.8925 82.7499 24.5859C82.7135 24.2792 82.6772 23.9726 82.6772 23.666C82.665 22.6977 82.9963 22.3669 83.5215 22.2096V22.1854C82.9923 22.0401 82.665 21.7093 82.6772 20.7531C82.6772 20.4586 82.7135 20.1641 82.7499 19.8454C82.7741 19.5509 82.8105 19.2443 82.8105 18.9134C82.8105 18.3607 82.6004 18.0581 82.0873 17.9936H81.9015V17.3561H82.0469C82.9155 17.3561 83.5902 17.8201 83.5902 18.9215C83.5902 19.3007 83.5538 19.6316 83.5175 19.9987C83.4811 20.3416 83.4447 20.6846 83.4447 21.0396C83.4447 21.443 83.6023 21.8949 84.277 21.8949V22.5081L84.281 22.5243Z" fill="#383873"/>
<path d="M80.0755 23.4159V21.0598L78.0313 19.8817L75.9911 21.0598V23.4159L78.0313 24.5939L80.0755 23.4159Z" fill="#FF6224"/>
<path d="M95.4394 35.1481C93.5204 34.1919 91.2096 34.5711 89.6946 36.0841C87.8201 37.956 87.7595 40.9536 89.4966 42.9063L88.7493 42.8175C88.6604 42.8054 88.5755 42.87 88.5675 42.9628C88.5553 43.0515 88.62 43.1363 88.7129 43.1443L89.8522 43.2815C89.8966 43.2855 89.941 43.2734 89.9734 43.2492C90.0057 43.225 90.0299 43.1847 90.034 43.1403L90.1673 42.0389C90.1794 41.9501 90.1148 41.8654 90.0218 41.8573C89.933 41.8452 89.8481 41.9098 89.84 42.0026L89.7552 42.7046C88.1231 40.881 88.1796 38.0771 89.933 36.3261C91.351 34.91 93.5043 34.559 95.298 35.4506C95.3788 35.491 95.4798 35.4587 95.5202 35.378C95.5606 35.2973 95.5283 35.1965 95.4475 35.1561L95.4394 35.1481Z" fill="#FF6224"/>
<path d="M91.149 44.2861C93.0679 45.2422 95.3788 44.863 96.8938 43.3501C98.7683 41.4781 98.8289 38.4805 97.0917 36.5278L97.8391 36.6166C97.928 36.6287 98.0128 36.5641 98.0209 36.4713C98.033 36.3826 97.9684 36.2979 97.8755 36.2898L96.7362 36.1526C96.6918 36.1486 96.6473 36.1607 96.615 36.1849C96.5827 36.2091 96.5584 36.2494 96.5544 36.2938L96.4251 37.3952C96.413 37.484 96.4776 37.5687 96.5706 37.5768C96.6594 37.5889 96.7443 37.5243 96.7524 37.4315L96.8372 36.7295C98.4693 38.5531 98.4128 41.357 96.6594 43.108C95.2414 44.5241 93.0881 44.8751 91.2944 43.9835C91.2136 43.9431 91.1126 43.9754 91.0722 44.0561C91.0318 44.1368 91.0641 44.2376 91.1449 44.278L91.149 44.2861Z" fill="#FF6224"/>
<path d="M135.37 53.5572H105.446C104.901 53.5572 104.461 53.1174 104.461 52.5728C104.461 52.0281 104.901 51.5884 105.446 51.5884H135.37C135.916 51.5884 136.356 52.0281 136.356 52.5728C136.356 53.1174 135.916 53.5572 135.37 53.5572Z" fill="#FF6224"/>
<path d="M124.684 57.8418H105.446C104.901 57.8418 104.461 57.402 104.461 56.8574C104.461 56.3127 104.901 55.873 105.446 55.873H124.684C125.23 55.873 125.67 56.3127 125.67 56.8574C125.67 57.402 125.23 57.8418 124.684 57.8418Z" fill="#20C3C5"/>
<path d="M124.684 62.4451H105.446C104.901 62.4451 104.461 62.0053 104.461 61.4607C104.461 60.916 104.901 60.4763 105.446 60.4763H124.684C125.23 60.4763 125.67 60.916 125.67 61.4607C125.67 62.0053 125.23 62.4451 124.684 62.4451Z" fill="#20C3C5"/>
<path d="M29.2653 37.1693H13.7196C13.1742 37.1693 12.7339 36.7296 12.7339 36.1849C12.7339 35.6403 13.1742 35.2005 13.7196 35.2005H29.2653C29.8107 35.2005 30.2511 35.6403 30.2511 36.1849C30.2511 36.7296 29.8107 37.1693 29.2653 37.1693Z" fill="#20C3C5"/>
<path d="M23.3953 41.4539H13.7196C13.1742 41.4539 12.7339 41.0142 12.7339 40.4695C12.7339 39.9249 13.1742 39.4851 13.7196 39.4851H23.3953C23.9407 39.4851 24.381 39.9249 24.381 40.4695C24.381 41.0142 23.9407 41.4539 23.3953 41.4539Z" fill="#FF6224"/>
<path d="M23.3953 46.0572H13.7196C13.1742 46.0572 12.7339 45.6174 12.7339 45.0728C12.7339 44.5281 13.1742 44.0884 13.7196 44.0884H23.3953C23.9407 44.0884 24.381 44.5281 24.381 45.0728C24.381 45.6174 23.9407 46.0572 23.3953 46.0572Z" fill="#FF6224"/>
<path d="M121.889 108.668C120.919 111.476 119.764 113.925 118.552 116.135C114.371 123.769 109.511 128.622 109.329 135.735C109.329 135.735 107.822 129.03 109.03 121.392C109.708 117.104 111.244 112.521 114.379 108.664C123.113 97.9401 121.82 88.1848 121.82 88.1848C121.82 88.1848 126.2 96.1851 121.885 108.664L121.889 108.668Z" fill="#169799"/>
<g style="mix-blend-mode:overlay" opacity="0.25">
<path d="M111.599 127.392C111.078 122.135 113.732 117.148 116.584 112.916C120.289 106.739 122.37 97.8917 122.293 90.7063C122.24 89.8551 122.196 88.9675 121.824 88.1848C122.212 88.9594 122.269 89.851 122.337 90.7023C122.551 97.8634 120.495 106.884 116.859 113.081C114.072 117.253 111.478 122.171 111.926 127.327C111.947 127.42 111.882 127.517 111.789 127.529C111.7 127.541 111.615 127.48 111.603 127.387L111.599 127.392Z" fill="#303030"/>
</g>
<g style="mix-blend-mode:overlay" opacity="0.25">
<path d="M118.552 116.135C114.371 123.769 109.511 128.622 109.329 135.735C109.329 135.735 107.822 129.029 109.03 121.392C111.741 120.287 115.554 118.483 118.548 116.131L118.552 116.135Z" fill="#303030"/>
</g>
<path d="M111.757 143.271C111.757 143.271 108.703 138.054 115.93 131.62C123.157 125.185 128.817 116.672 127.714 109.785C120.798 117.806 102.412 129.183 107.6 143.267H111.753L111.757 143.271Z" fill="#20C3C5"/>
<g style="mix-blend-mode:overlay" opacity="0.25">
<path d="M127.714 109.785C125.553 114.32 121.933 118.003 118.079 121.15C113.126 125.475 109.523 131.765 109.167 138.393C109.119 140.039 109.329 141.714 109.991 143.215C110.028 143.299 109.991 143.396 109.906 143.432C109.822 143.469 109.725 143.432 109.688 143.348C109.018 141.778 108.816 140.06 108.88 138.385C109.292 131.688 112.965 125.378 117.998 121.057C121.877 117.943 125.513 114.3 127.714 109.785Z" fill="#303030"/>
</g>
<path d="M8.01112 105.489C8.01112 105.489 4.23782 102.055 2.23401 93.474C13.7842 103.253 16.6121 111.964 16.6121 111.964L8.00708 105.493L8.01112 105.489Z" fill="#169799"/>
<g style="mix-blend-mode:overlay" opacity="0.25">
<path d="M2.23401 93.474C5.38516 98.1096 8.70599 102.673 11.1986 107.708C11.2875 107.905 10.9845 108.042 10.8956 107.841C8.51611 102.785 5.28012 98.1499 2.23401 93.47V93.474Z" fill="#303030"/>
</g>
<path d="M16.3779 110.314C14.3013 108.446 11.2269 106.594 8.29798 104.597C4.40752 101.946 0.77966 99.0335 0.10903 95.4751C-1.41807 108.309 13.5297 114.09 13.5297 114.09L13.558 114.134L18.9877 122.042C18.9877 122.042 21.2056 114.667 16.3738 110.314H16.3779Z" fill="#20C3C5"/>
<g style="mix-blend-mode:overlay" opacity="0.25">
<path d="M0.108765 95.4791C0.185523 99.8928 3.40939 103.459 7.0211 105.63C10.6086 107.937 14.4303 110.189 16.8139 113.856C18.4178 116.261 19.1571 119.173 19.1571 122.046C19.1571 122.139 19.0844 122.211 18.9914 122.211C18.8985 122.211 18.8258 122.139 18.8258 122.046C18.85 119.226 18.1552 116.369 16.6038 113.989C14.293 110.35 10.4874 108.054 6.95242 105.735C3.35283 103.528 0.141084 99.9049 0.108765 95.4791Z" fill="#303030"/>
</g>
<path d="M122.802 149H22.3651C20.7814 149 19.4967 147.717 19.4967 146.136C19.4967 144.554 20.7814 143.271 22.3651 143.271H122.802C124.386 143.271 125.67 144.554 125.67 146.136C125.67 147.717 124.386 149 122.802 149Z" fill="#EAF9F8"/>
</g>
<defs>
<clipPath id="clip0_27_540">
<rect width="140" height="149" fill="white"/>
</clipPath>
</defs>
</svg>
