<svg width="15" height="15" viewBox="0 0 15 15" fill="none" xmlns="http://www.w3.org/2000/svg">
<g clip-path="url(#clip0_27_510)">
<path d="M10.2343 2.03115C10.9589 2.03332 11.6532 2.32212 12.1655 2.83448C12.6779 3.34684 12.9667 4.04114 12.9688 4.76572V10.2343C12.9667 10.9589 12.6779 11.6532 12.1655 12.1655C11.6532 12.6779 10.9589 12.9667 10.2343 12.9688H4.76572C4.04114 12.9667 3.34684 12.6779 2.83448 12.1655C2.32212 11.6532 2.03332 10.9589 2.03115 10.2343V4.76572C2.03332 4.04114 2.32212 3.34684 2.83448 2.83448C3.34684 2.32212 4.04114 2.03332 4.76572 2.03115H10.2343M10.2343 0.9375H4.76572C2.66016 0.9375 0.9375 2.66016 0.9375 4.76572V10.2343C0.9375 12.3398 2.66016 14.0625 4.76572 14.0625H10.2343C12.3398 14.0625 14.0625 12.3398 14.0625 10.2343V4.76572C14.0625 2.66016 12.3398 0.9375 10.2343 0.9375V0.9375Z" fill="#808080"/>
<path d="M11.0546 4.76572C10.8923 4.76572 10.7338 4.71761 10.5989 4.62747C10.464 4.53733 10.3588 4.40922 10.2967 4.25932C10.2346 4.10943 10.2184 3.94449 10.25 3.78537C10.2817 3.62624 10.3598 3.48008 10.4745 3.36536C10.5893 3.25063 10.7354 3.17251 10.8946 3.14085C11.0537 3.1092 11.2186 3.12545 11.3685 3.18753C11.5184 3.24962 11.6465 3.35476 11.7367 3.48966C11.8268 3.62456 11.8749 3.78316 11.8749 3.9454C11.8751 4.05319 11.8541 4.15997 11.8129 4.2596C11.7718 4.35923 11.7114 4.44975 11.6352 4.52597C11.5589 4.60219 11.4684 4.6626 11.3688 4.70375C11.2692 4.74489 11.1624 4.76595 11.0546 4.76572V4.76572ZM7.5 5.3124C7.93267 5.3124 8.35562 5.4407 8.71537 5.68107C9.07511 5.92145 9.3555 6.26311 9.52108 6.66284C9.68665 7.06257 9.72997 7.50242 9.64556 7.92677C9.56116 8.35113 9.35281 8.74092 9.04687 9.04686C8.74093 9.3528 8.35113 9.56115 7.92678 9.64556C7.50243 9.72997 7.06258 9.68664 6.66284 9.52107C6.26311 9.3555 5.92146 9.07511 5.68108 8.71536C5.4407 8.35561 5.3124 7.93266 5.3124 7.49999C5.31302 6.92 5.5437 6.36393 5.95382 5.95381C6.36394 5.54369 6.92 5.31302 7.5 5.3124M7.5 4.21874C6.85103 4.21874 6.21664 4.41119 5.67704 4.77173C5.13744 5.13228 4.71687 5.64474 4.46852 6.24431C4.22017 6.84388 4.15519 7.50363 4.2818 8.14013C4.40841 8.77663 4.72092 9.3613 5.17981 9.82019C5.6387 10.2791 6.22336 10.5916 6.85986 10.7182C7.49636 10.8448 8.15611 10.7798 8.75568 10.5315C9.35525 10.2831 9.86771 9.86256 10.2283 9.32296C10.5888 8.78336 10.7813 8.14896 10.7813 7.49999C10.7813 6.62975 10.4355 5.79515 9.8202 5.1798C9.20484 4.56445 8.37024 4.21874 7.5 4.21874V4.21874Z" fill="#808080"/>
</g>
<defs>
<clipPath id="clip0_27_510">
<rect width="15" height="15" fill="white"/>
</clipPath>
</defs>
</svg>
