<svg width="235" height="149" viewBox="0 0 235 149" fill="none" xmlns="http://www.w3.org/2000/svg">
<g clip-path="url(#clip0_27_684)">
<path d="M54.2222 61.3965C51.4918 63.7192 48.2645 34.0844 61.4257 23.2307C72.9202 13.7506 84.9019 21.5749 82.9535 27.4846C81.0085 33.3943 73.0958 32.4519 63.5927 45.499C56.7437 54.9028 56.0214 59.8668 54.2188 61.3998L54.2222 61.3965Z" fill="url(#paint0_linear_27_684)"/>
<path d="M126.526 45.5289C120.409 41.7395 124.14 33.6498 130.257 34.0845C136.37 34.5192 138.866 44.5534 136.228 47.0785C133.59 49.6036 129.058 47.0951 126.526 45.5289Z" fill="url(#paint1_linear_27_684)"/>
<path d="M27.3695 133.259C6.00736 133.511 41.4088 130.677 50.2558 89.9362C59.1029 49.1955 71.4423 16.6773 120.764 44.0822C170.089 71.4871 181.076 50.9309 202.037 56.9335C222.998 62.9361 211.574 99.2471 225.156 118.147C235.457 132.489 219.559 150.609 154.465 148.887C110.76 147.732 78.0892 132.665 27.3662 133.262L27.3695 133.259Z" fill="url(#paint2_linear_27_684)"/>
<path style="mix-blend-mode:screen" opacity="0.81" d="M132.159 138.8C172.044 138.8 204.377 134.914 204.377 130.119C204.377 125.325 172.044 121.439 132.159 121.439C92.2741 121.439 59.9412 125.325 59.9412 130.119C59.9412 134.914 92.2741 138.8 132.159 138.8Z" fill="url(#paint3_radial_27_684)"/>
<path style="mix-blend-mode:multiply" opacity="0.94" d="M135.366 129.091C166.998 129.091 192.64 128.045 192.64 126.755C192.64 125.465 166.998 124.419 135.366 124.419C103.735 124.419 78.0925 125.465 78.0925 126.755C78.0925 128.045 103.735 129.091 135.366 129.091Z" fill="url(#paint4_radial_27_684)"/>
<path style="mix-blend-mode:multiply" opacity="0.94" d="M166.225 132.313C184.115 132.313 198.618 131.188 198.618 129.801C198.618 128.414 184.115 127.289 166.225 127.289C148.335 127.289 133.832 128.414 133.832 129.801C133.832 131.188 148.335 132.313 166.225 132.313Z" fill="url(#paint5_radial_27_684)"/>
<path style="mix-blend-mode:multiply" opacity="0.94" fill-rule="evenodd" clip-rule="evenodd" d="M191.994 129.801C191.994 130.514 180.456 131.095 166.225 131.095C151.994 131.095 140.456 130.518 140.456 129.801C140.456 129.084 151.994 128.507 166.225 128.507C180.456 128.507 191.994 129.084 191.994 129.801Z" fill="url(#paint6_radial_27_684)"/>
<path style="mix-blend-mode:multiply" opacity="0.94" fill-rule="evenodd" clip-rule="evenodd" d="M220.934 126.755C220.934 127.263 213.217 127.674 203.694 127.674C194.171 127.674 186.454 127.263 186.454 126.755C186.454 126.247 194.171 125.836 203.694 125.836C213.217 125.836 220.934 126.247 220.934 126.755Z" fill="url(#paint7_radial_27_684)"/>
<path style="mix-blend-mode:multiply" opacity="0.94" fill-rule="evenodd" clip-rule="evenodd" d="M110.724 127.08C110.724 127.767 91.2737 128.324 67.2773 128.324C43.2809 128.324 23.8307 127.767 23.8307 127.08C23.8307 126.393 43.2809 125.836 67.2773 125.836C91.2737 125.836 110.724 126.393 110.724 127.08Z" fill="url(#paint8_radial_27_684)"/>
<path d="M168.472 29.9168C168.382 30.315 168.283 30.6866 168.174 31.0284C166.888 35.1064 164.37 35.4847 163.038 42.2704H155.271C153.916 35.342 151.315 35.0932 150.055 30.7629C149.976 30.4975 149.906 30.2154 149.84 29.9168C148.687 24.7504 154.764 20.1879 159.154 20.1879C163.545 20.1879 169.622 24.7504 168.472 29.9168Z" fill="url(#paint9_radial_27_684)"/>
<g style="mix-blend-mode:multiply" opacity="0.8">
<path d="M159.154 20.2708C161.805 20.2708 164.973 21.9166 166.855 24.2692C167.849 25.5136 168.922 27.4978 168.389 29.8969C167.875 32.203 167.017 33.4474 166.109 34.7647C165.012 36.3574 163.766 38.1625 162.971 42.1841H155.34C154.542 38.1625 153.299 36.3574 152.202 34.7647C151.294 33.4474 150.436 32.1997 149.923 29.8969C149.389 27.4978 150.459 25.5102 151.457 24.2692C153.342 21.9133 156.51 20.2708 159.157 20.2708H159.154ZM159.154 20.1879C154.764 20.1879 148.687 24.7504 149.837 29.9168C150.99 35.0832 153.829 34.914 155.267 42.2704H163.034C164.476 34.9173 167.315 35.0865 168.465 29.9168C169.618 24.7504 163.541 20.1879 159.147 20.1879H159.154Z" fill="url(#paint10_radial_27_684)"/>
</g>
<path style="mix-blend-mode:multiply" opacity="0.8" fill-rule="evenodd" clip-rule="evenodd" d="M160.817 31.4631C160.817 31.4631 161.096 34.5954 159.214 35.1794C157.332 34.5988 157.61 31.4631 157.61 31.4631L157.193 31.7153C157.859 34.9737 158.024 41.6333 158.024 41.6333H160.4C160.4 41.6333 160.569 34.9737 161.232 31.7153L160.814 31.4631H160.817Z" fill="url(#paint11_linear_27_684)"/>
<path style="mix-blend-mode:multiply" opacity="0.8" fill-rule="evenodd" clip-rule="evenodd" d="M154.893 40.618C155.234 41.5637 161.679 41.9917 163.336 40.9233L163.14 41.7594L155.185 41.8557L154.89 40.618H154.893Z" fill="url(#paint12_linear_27_684)"/>
<path style="mix-blend-mode:screen" d="M162.461 30.2785C164.895 30.2785 166.868 28.3026 166.868 25.8653C166.868 23.4279 164.895 21.4521 162.461 21.4521C160.027 21.4521 158.054 23.4279 158.054 25.8653C158.054 28.3026 160.027 30.2785 162.461 30.2785Z" fill="url(#paint13_radial_27_684)"/>
<path style="mix-blend-mode:screen" d="M154.426 30.1889C155.284 32.2926 155.085 34.3632 153.982 34.8178C152.878 35.269 151.288 33.9285 150.43 31.8248C149.571 29.721 149.77 27.6505 150.874 27.1959C151.977 26.7446 153.568 28.0852 154.426 30.1889Z" fill="url(#paint14_radial_27_684)"/>
<path style="mix-blend-mode:multiply" opacity="0.3" d="M168.173 31.0317C166.888 35.1064 164.37 35.488 163.037 42.2737H155.271C153.915 35.3453 151.314 35.0965 150.055 30.7662C151.53 33.9185 154.986 35.1263 160.612 34.9206C166.248 34.7116 168.17 31.035 168.17 31.035L168.173 31.0317Z" fill="url(#paint15_linear_27_684)"/>
<path fill-rule="evenodd" clip-rule="evenodd" d="M154.465 41.9884L155.052 47.4733C155.052 47.4733 157.782 46.7699 163.124 47.4733L163.866 42.2605C163.866 42.2605 159.966 40.9033 154.469 41.9884H154.465Z" fill="url(#paint16_radial_27_684)"/>
<path fill-rule="evenodd" clip-rule="evenodd" d="M155.052 47.4734C155.052 47.4734 159.108 48.6049 163.124 47.4734C163.124 47.4734 158.405 46.458 155.052 47.4734Z" fill="url(#paint17_linear_27_684)"/>
<path fill-rule="evenodd" clip-rule="evenodd" d="M156.513 47.4734L156.904 48.2531C156.904 48.2531 159.048 48.7608 161.232 48.2531L161.623 47.4966C161.623 47.4966 159.359 46.8064 156.513 47.47V47.4734Z" fill="url(#paint18_radial_27_684)"/>
<g style="mix-blend-mode:multiply" opacity="0.5">
<path fill-rule="evenodd" clip-rule="evenodd" d="M156.904 48.2531C156.904 48.2531 159.353 47.6559 161.232 48.2531C161.232 48.2531 158.962 48.7475 156.904 48.2531Z" fill="#614881"/>
</g>
<path fill-rule="evenodd" clip-rule="evenodd" d="M154.982 46.8196L154.247 46.1427C154.247 46.1427 158.717 43.6441 164.177 44.1651L163.435 45.2866C163.435 45.2866 158.866 44.112 154.982 46.8196Z" fill="url(#paint19_radial_27_684)"/>
<path fill-rule="evenodd" clip-rule="evenodd" d="M154.764 44.769L154.247 44.3509C154.247 44.3509 157.998 41.3247 164.542 41.8191L163.767 42.9573C163.767 42.9573 159.207 41.7295 154.764 44.7723V44.769Z" fill="url(#paint20_radial_27_684)"/>
<path fill-rule="evenodd" clip-rule="evenodd" d="M154.247 44.3476L154.661 43.8034C154.661 43.8034 159.81 40.8768 164.542 41.8125C164.542 41.8125 159.419 40.9863 154.247 44.3443V44.3476Z" fill="url(#paint21_linear_27_684)"/>
<path fill-rule="evenodd" clip-rule="evenodd" d="M154.247 46.1461L154.837 45.4592C154.837 45.4592 158.64 43.7105 163.617 43.9926L164.174 44.1684C164.174 44.1684 159.065 43.6674 154.243 46.1461H154.247Z" fill="url(#paint22_linear_27_684)"/>
<g style="mix-blend-mode:multiply" opacity="0.3">
<path d="M154.247 46.1461L154.982 46.823L155.052 47.2676C155.052 47.2676 156.288 45.5754 159.277 45.2635C162.265 44.9515 163.313 46.1494 163.313 46.1494L163.435 45.2933L164.177 44.1718C164.177 44.1718 158.531 43.9063 154.247 46.1494V46.1461Z" fill="#614881"/>
</g>
<g style="mix-blend-mode:multiply" opacity="0.3">
<path d="M154.247 44.3476L154.764 44.7657L154.837 45.4559C154.837 45.4559 155.794 43.5513 159.068 43.0701C162.345 42.589 163.664 43.674 163.664 43.674L163.767 42.9507L164.542 41.8125C164.542 41.8125 159.29 41.0128 154.247 44.3443V44.3476Z" fill="#614881"/>
</g>
<path fill-rule="evenodd" clip-rule="evenodd" d="M29.7221 126.101L29.3378 111.859L87.0722 112.218L86.33 126.101H29.7221Z" fill="url(#paint23_linear_27_684)"/>
<g style="mix-blend-mode:multiply" opacity="0.3">
<path fill-rule="evenodd" clip-rule="evenodd" d="M29.722 126.101C29.722 126.101 51.7734 124.976 59.0565 120.795C66.3395 116.614 56.8596 112.029 56.8596 112.029H60.69C60.69 112.029 65.2328 115.649 63.3474 120.175C61.4654 124.701 47.0649 126.101 47.0649 126.101H29.722Z" fill="url(#paint24_linear_27_684)"/>
<path fill-rule="evenodd" clip-rule="evenodd" d="M52.1511 126.101C52.1511 126.101 63.4535 124.323 65.5874 120.281C67.7213 116.236 63.8047 112.032 63.8047 112.032H65.0671C65.0671 112.032 68.5231 117.119 66.0181 120.556C63.5131 123.994 55.1432 126.104 55.1432 126.104H52.1511V126.101Z" fill="url(#paint25_linear_27_684)"/>
<path fill-rule="evenodd" clip-rule="evenodd" d="M60.3124 126.101C60.3124 126.101 74.4378 123.413 75.8494 112.218H78.5333C78.5333 112.218 77.1052 121.174 65.0672 126.101H60.3124Z" fill="url(#paint26_linear_27_684)"/>
<path fill-rule="evenodd" clip-rule="evenodd" d="M74.3749 126.101C74.3749 126.101 83.9343 122.786 86.9065 115.297L86.8668 116.027C86.8668 116.027 84.0205 123.098 75.0641 126.098H74.3749V126.101Z" fill="url(#paint27_linear_27_684)"/>
<path fill-rule="evenodd" clip-rule="evenodd" d="M77.0753 126.101C77.0753 126.101 83.9276 123.579 86.7806 117.706L86.7507 118.25C86.7507 118.25 84.3253 123.579 77.516 126.101H77.0753Z" fill="url(#paint28_linear_27_684)"/>
<path fill-rule="evenodd" clip-rule="evenodd" d="M29.7221 126.101C29.7221 126.101 54.8483 124.379 57.3036 119.159C59.7622 113.94 53.0889 112.005 53.0889 112.005L50.7661 111.992C50.7661 111.992 58.3639 113.99 56.4156 118.728C54.4706 123.466 29.7188 124.661 29.7188 124.661V126.101H29.7221Z" fill="url(#paint29_linear_27_684)"/>
<path fill-rule="evenodd" clip-rule="evenodd" d="M29.6227 123.311C29.6227 123.311 45.5573 122.451 47.8171 117.806C50.0769 113.157 42.9827 111.946 42.9827 111.946L40.8488 112.032C40.8488 112.032 49.0365 113.346 47.3598 117.308C45.6832 121.27 29.6227 122.401 29.6227 122.401V123.311Z" fill="url(#paint30_linear_27_684)"/>
<path fill-rule="evenodd" clip-rule="evenodd" d="M29.5498 120.779C29.5498 120.779 35.7626 120.072 37.0814 116.989C38.4002 113.91 36.2663 111.899 36.2663 111.899L34.1953 111.942C34.1953 111.942 38.0257 113.761 36.4353 116.737C34.8448 119.714 29.5531 119.714 29.5531 119.714V120.779H29.5498Z" fill="url(#paint31_linear_27_684)"/>
</g>
<path fill-rule="evenodd" clip-rule="evenodd" d="M29.7222 126.101V126.705L86.33 126.589V126.101H29.7222Z" fill="#D94A4D"/>
<g style="mix-blend-mode:soft-light" opacity="0.6">
<path fill-rule="evenodd" clip-rule="evenodd" d="M65.0672 112.032C65.0672 112.032 73.6426 120.839 55.8126 126.105H60.3124C60.3124 126.105 73.4537 124.927 75.8494 112.221L65.0672 112.032Z" fill="#FFC27F"/>
<path fill-rule="evenodd" clip-rule="evenodd" d="M69.4212 126.101C69.4212 126.101 82.0953 122.577 84.0204 112.218H85.5082C85.5082 112.218 82.4068 122.511 70.4152 126.101H69.4178H69.4212Z" fill="#FFC27F"/>
</g>
<path d="M31.3059 112.55H31.1403V115.005H31.3059V112.55Z" fill="url(#paint32_radial_27_684)"/>
<path d="M32.913 112.55H32.7473V115.005H32.913V112.55Z" fill="url(#paint33_radial_27_684)"/>
<path d="M34.5233 112.55H34.3577V115.005H34.5233V112.55Z" fill="url(#paint34_radial_27_684)"/>
<path d="M36.1304 112.55H35.9647V116.638H36.1304V112.55Z" fill="url(#paint35_radial_27_684)"/>
<path d="M37.6513 112.55H37.4856V115.005H37.6513V112.55Z" fill="url(#paint36_radial_27_684)"/>
<path d="M39.2583 112.55H39.0927V115.005H39.2583V112.55Z" fill="url(#paint37_radial_27_684)"/>
<path d="M40.8654 112.55H40.6997V115.005H40.8654V112.55Z" fill="url(#paint38_radial_27_684)"/>
<path d="M42.4757 112.55H42.3101V116.638H42.4757V112.55Z" fill="url(#paint39_radial_27_684)"/>
<path d="M43.9933 112.55H43.8276V115.005H43.9933V112.55Z" fill="url(#paint40_radial_27_684)"/>
<path d="M45.6037 112.55H45.438V115.005H45.6037V112.55Z" fill="url(#paint41_radial_27_684)"/>
<path d="M47.2107 112.55H47.045V115.005H47.2107V112.55Z" fill="url(#paint42_radial_27_684)"/>
<path d="M48.8211 112.55H48.6554V116.638H48.8211V112.55Z" fill="url(#paint43_radial_27_684)"/>
<path d="M50.3386 112.55H50.173V115.005H50.3386V112.55Z" fill="url(#paint44_radial_27_684)"/>
<path d="M51.9457 112.55H51.78V115.005H51.9457V112.55Z" fill="url(#paint45_radial_27_684)"/>
<path d="M53.5561 112.55H53.3904V115.005H53.5561V112.55Z" fill="url(#paint46_radial_27_684)"/>
<path d="M55.1631 112.55H54.9974V116.638H55.1631V112.55Z" fill="url(#paint47_radial_27_684)"/>
<path d="M56.684 112.55H56.5183V115.005H56.684V112.55Z" fill="url(#paint48_radial_27_684)"/>
<path d="M58.291 112.55H58.1254V115.005H58.291V112.55Z" fill="url(#paint49_radial_27_684)"/>
<path d="M59.9014 112.55H59.7357V115.005H59.9014V112.55Z" fill="url(#paint50_radial_27_684)"/>
<path d="M61.5084 112.55H61.3428V116.638H61.5084V112.55Z" fill="url(#paint51_radial_27_684)"/>
<path d="M63.0293 112.55H62.8636V115.005H63.0293V112.55Z" fill="url(#paint52_radial_27_684)"/>
<path d="M64.6364 112.55H64.4707V115.005H64.6364V112.55Z" fill="url(#paint53_radial_27_684)"/>
<path d="M66.2434 112.55H66.0778V115.005H66.2434V112.55Z" fill="url(#paint54_radial_27_684)"/>
<path d="M67.8538 112.55H67.6881V116.638H67.8538V112.55Z" fill="url(#paint55_radial_27_684)"/>
<path d="M69.3714 112.55H69.2057V115.005H69.3714V112.55Z" fill="url(#paint56_radial_27_684)"/>
<path d="M70.9818 112.55H70.8162V115.005H70.9818V112.55Z" fill="url(#paint57_radial_27_684)"/>
<path d="M72.5888 112.55H72.4231V115.005H72.5888V112.55Z" fill="url(#paint58_radial_27_684)"/>
<path d="M74.1958 112.55H74.0302V116.638H74.1958V112.55Z" fill="url(#paint59_radial_27_684)"/>
<path d="M75.6604 112.55H75.4948V115.005H75.6604V112.55Z" fill="url(#paint60_radial_27_684)"/>
<path d="M77.2675 112.55H77.1018V115.005H77.2675V112.55Z" fill="url(#paint61_radial_27_684)"/>
<path d="M78.8778 112.55H78.7122V115.005H78.8778V112.55Z" fill="url(#paint62_radial_27_684)"/>
<path d="M80.4849 112.55H80.3192V116.638H80.4849V112.55Z" fill="url(#paint63_radial_27_684)"/>
<path d="M82.0025 112.55H81.8368V115.005H82.0025V112.55Z" fill="url(#paint64_radial_27_684)"/>
<path d="M83.6128 112.55H83.4471V115.005H83.6128V112.55Z" fill="url(#paint65_radial_27_684)"/>
<path d="M85.2199 112.55H85.0542V115.005H85.2199V112.55Z" fill="url(#paint66_radial_27_684)"/>
<path fill-rule="evenodd" clip-rule="evenodd" d="M133.796 41.8889L140.217 47.2345L130.552 55.8518L126.095 48.6281L133.796 41.8889Z" fill="#F4E5F7"/>
<path fill-rule="evenodd" clip-rule="evenodd" d="M130.552 55.8518L136.712 58.0119L142.524 52.1354L140.217 47.2344L130.552 55.8518Z" fill="#DBB9E9"/>
<path style="mix-blend-mode:multiply" d="M136.311 132.316C190.815 132.316 235 124.848 235 115.636C235 106.423 190.815 98.9551 136.311 98.9551C81.8061 98.9551 37.6215 106.423 37.6215 115.636C37.6215 124.848 81.8061 132.316 136.311 132.316Z" fill="url(#paint67_radial_27_684)"/>
<path fill-rule="evenodd" clip-rule="evenodd" d="M217.468 53.2105L165.436 69.7351C164.582 70.0138 164.121 70.9429 164.419 71.7924L168.81 84.3219C169.091 85.1249 169.949 85.5662 170.765 85.3273L221.961 70.412C222.787 70.1731 223.277 69.317 223.065 68.4808L219.506 54.342C219.281 53.4461 218.343 52.9252 217.465 53.2105H217.468ZM167.352 72.8443C166.841 72.9936 166.301 72.7016 166.152 72.1839C166.003 71.6729 166.301 71.1321 166.812 70.9827C167.325 70.8334 167.862 71.1321 168.011 71.6431C168.16 72.1574 167.869 72.6949 167.352 72.8443Z" fill="url(#paint68_linear_27_684)"/>
<path fill-rule="evenodd" clip-rule="evenodd" d="M217.409 53.0645L165.377 69.5891C164.522 69.8678 164.061 70.7969 164.36 71.6464L168.75 84.1759C169.032 84.9789 169.89 85.4202 170.705 85.1813L221.902 70.266C222.727 70.0271 223.217 69.171 223.005 68.3348L219.446 54.196C219.221 53.3001 218.283 52.7792 217.405 53.0645H217.409ZM167.292 72.6983C166.782 72.8476 166.242 72.5556 166.093 72.0379C165.943 71.5269 166.242 70.9861 166.752 70.8368C167.265 70.6874 167.802 70.9861 167.951 71.4971C168.101 72.0114 167.809 72.5489 167.292 72.6983Z" fill="url(#paint69_linear_27_684)"/>
<path fill-rule="evenodd" clip-rule="evenodd" d="M180.278 80.715L173.853 82.5864L169.721 70.1034L176.199 68.0561L180.278 80.715Z" fill="#598800"/>
<path fill-rule="evenodd" clip-rule="evenodd" d="M187.783 78.5283L181.186 80.4495L177.117 67.7674L183.77 65.6637L187.783 78.5283Z" fill="#5E9339"/>
<path fill-rule="evenodd" clip-rule="evenodd" d="M195.487 76.2852L188.71 78.2562L184.708 65.3684L191.547 63.2049L195.487 76.2852Z" fill="#97B368"/>
<path fill-rule="evenodd" clip-rule="evenodd" d="M203.399 73.9791L196.441 76.0065L192.511 62.8996L199.539 60.6797L203.399 73.9791Z" fill="#B1CC00"/>
<path fill-rule="evenodd" clip-rule="evenodd" d="M211.534 71.6099L204.38 73.6937L200.53 60.3678L207.757 58.0816L211.534 71.6099Z" fill="#E5CC00"/>
<path fill-rule="evenodd" clip-rule="evenodd" d="M219.894 69.1743L212.541 71.3145L208.774 57.7597L216.209 55.4105L219.894 69.1743Z" fill="#EAD631"/>
<path fill-rule="evenodd" clip-rule="evenodd" d="M212.839 43.173L165.347 70.12C164.568 70.568 164.31 71.5734 164.777 72.3432L171.662 83.6914C172.103 84.4181 173.038 84.6736 173.783 84.2721L220.792 59.0705C221.551 58.6656 221.852 57.7266 221.471 56.9535L215.069 43.8566C214.662 43.0237 213.638 42.7118 212.836 43.173H212.839ZM167.865 72.7646C167.395 73.0168 166.808 72.8409 166.556 72.3664C166.305 71.8953 166.483 71.3079 166.954 71.0558C167.428 70.8036 168.011 70.9828 168.263 71.4539C168.515 71.9284 168.339 72.5124 167.865 72.7646Z" fill="url(#paint70_linear_27_684)"/>
<path fill-rule="evenodd" clip-rule="evenodd" d="M212.753 43.0403L165.261 69.9873C164.482 70.4352 164.224 71.4406 164.691 72.2105L171.576 83.5587C172.017 84.2854 172.951 84.5409 173.697 84.1394L220.706 58.9377C221.464 58.5329 221.766 57.5938 221.385 56.8207L214.983 43.7238C214.576 42.8909 213.552 42.579 212.75 43.0403H212.753ZM167.779 72.6319C167.309 72.8841 166.722 72.7082 166.47 72.2337C166.218 71.7625 166.397 71.1752 166.868 70.923C167.342 70.6708 167.925 70.85 168.177 71.3212C168.428 71.7957 168.253 72.3797 167.779 72.6319Z" fill="url(#paint71_linear_27_684)"/>
<path fill-rule="evenodd" clip-rule="evenodd" d="M182.14 77.785L176.242 80.9506L169.618 69.5957L175.533 66.2477L182.14 77.785Z" fill="#005D88"/>
<path fill-rule="evenodd" clip-rule="evenodd" d="M189.032 74.0919L182.975 77.3404L176.371 65.7732L182.448 62.3389L189.032 74.0919Z" fill="#005AD9"/>
<path fill-rule="evenodd" clip-rule="evenodd" d="M196.103 70.3025L189.883 73.6373L183.303 61.8544L189.545 58.3206L196.103 70.3025Z" fill="#5B5BFF"/>
<path fill-rule="evenodd" clip-rule="evenodd" d="M203.369 66.4069L196.978 69.8313L190.427 57.8228L196.845 54.1927L203.369 66.4069Z" fill="#8D91FF"/>
<path fill-rule="evenodd" clip-rule="evenodd" d="M210.838 62.4019L204.267 65.9225L197.746 53.6817L204.347 49.9487L210.838 62.4019Z" fill="#C2BAFF"/>
<path fill-rule="evenodd" clip-rule="evenodd" d="M218.515 58.2874L211.762 61.9075L205.275 49.4245L212.064 45.5853L218.515 58.2874Z" fill="#FF8DF4"/>
<g style="mix-blend-mode:multiply" opacity="0.5">
<path fill-rule="evenodd" clip-rule="evenodd" d="M206.209 34.4793L164.93 70.246C164.254 70.84 164.197 71.8753 164.807 72.5389L173.783 82.311C174.36 82.9381 175.324 83.0012 175.977 82.4603L217.124 48.502C217.786 47.9545 217.899 46.9756 217.376 46.292L208.529 34.7116C207.965 33.9749 206.902 33.8687 206.206 34.4793H206.209ZM167.915 72.3431C167.504 72.6816 166.894 72.6252 166.553 72.2104C166.215 71.799 166.275 71.1851 166.686 70.8466C167.1 70.5049 167.71 70.5679 168.048 70.9794C168.389 71.3941 168.329 72.0014 167.915 72.3431Z" fill="#914881"/>
</g>
<path fill-rule="evenodd" clip-rule="evenodd" d="M206.057 34.1806L164.777 69.9474C164.101 70.5414 164.045 71.5766 164.654 72.2403L173.631 82.0123C174.207 82.6395 175.172 82.7025 175.824 82.1617L216.971 48.2033C217.634 47.6558 217.747 46.6769 217.223 45.9934L208.376 34.4129C207.813 33.6763 206.749 33.5701 206.053 34.1806H206.057ZM167.763 72.0445C167.352 72.383 166.742 72.3265 166.401 71.9118C166.063 71.5003 166.122 70.8865 166.533 70.548C166.947 70.2062 167.557 70.2693 167.895 70.6807C168.236 71.0955 168.177 71.7027 167.763 72.0445Z" fill="url(#paint72_linear_27_684)"/>
<path fill-rule="evenodd" clip-rule="evenodd" d="M205.944 34.0678L164.664 69.8346C163.988 70.4286 163.932 71.4638 164.542 72.1275L173.518 81.8996C174.095 82.5267 175.059 82.5897 175.712 82.0489L216.859 48.0905C217.521 47.543 217.634 46.5641 217.11 45.8806L208.263 34.3001C207.7 33.5635 206.637 33.4573 205.941 34.0678H205.944ZM167.65 71.9317C167.239 72.2702 166.629 72.2138 166.288 71.799C165.95 71.3875 166.01 70.7737 166.421 70.4352C166.835 70.0934 167.444 70.1565 167.782 70.5679C168.124 70.9827 168.064 71.5899 167.65 71.9317Z" fill="url(#paint73_linear_27_684)"/>
<path fill-rule="evenodd" clip-rule="evenodd" d="M182.746 74.1582L177.58 78.4221L168.859 68.5903L174.002 64.1439L182.746 74.1582Z" fill="#88005B"/>
<path fill-rule="evenodd" clip-rule="evenodd" d="M188.777 69.1809L183.475 73.5576L174.731 63.5168L180.016 58.9509L188.777 69.1809Z" fill="#D9005B"/>
<path fill-rule="evenodd" clip-rule="evenodd" d="M194.966 64.0742L189.522 68.567L180.758 58.3072L186.189 53.6186L194.966 64.0742Z" fill="#FF665B"/>
<path fill-rule="evenodd" clip-rule="evenodd" d="M201.325 58.8249L195.732 63.4405L186.951 52.955L192.534 48.1337L201.325 58.8249Z" fill="#FF928D"/>
<path fill-rule="evenodd" clip-rule="evenodd" d="M207.862 53.4295L202.113 58.1745L193.319 47.4567L199.055 42.496L207.862 53.4295Z" fill="#FFC4BA"/>
<path fill-rule="evenodd" clip-rule="evenodd" d="M214.582 47.8848L208.674 52.7625L199.864 41.7992L205.768 36.6992L214.582 47.8848Z" fill="#FFD88D"/>
<g style="mix-blend-mode:multiply" opacity="0.5">
<path fill-rule="evenodd" clip-rule="evenodd" d="M201.958 30.753L164.876 70.8733C164.267 71.5336 164.32 72.5722 164.996 73.1661L174.754 81.7403C175.393 82.3011 176.358 82.2646 176.951 81.6574L214.291 43.5413C214.894 42.9275 214.9 41.942 214.307 41.3181L204.29 30.7364C203.654 30.0662 202.584 30.0728 201.958 30.7497V30.753ZM168.064 72.6452C167.693 73.0268 167.08 73.0334 166.696 72.6585C166.314 72.2868 166.311 71.6696 166.682 71.288C167.057 70.9064 167.67 70.9031 168.051 71.2748C168.432 71.6497 168.438 72.2603 168.064 72.6452Z" fill="#914881"/>
</g>
<path fill-rule="evenodd" clip-rule="evenodd" d="M201.769 30.5639L164.688 70.6841C164.078 71.3444 164.131 72.383 164.807 72.977L174.565 81.5512C175.205 82.112 176.169 82.0755 176.762 81.4682L214.102 43.3522C214.705 42.7383 214.711 41.7528 214.118 41.129L204.102 30.5473C203.465 29.877 202.395 29.8837 201.769 30.5606V30.5639ZM167.875 72.456C167.504 72.8376 166.891 72.8443 166.507 72.4693C166.126 72.0977 166.122 71.4805 166.493 71.0989C166.868 70.7173 167.481 70.714 167.862 71.0856C168.243 71.4606 168.25 72.0711 167.875 72.456Z" fill="url(#paint74_linear_27_684)"/>
<path fill-rule="evenodd" clip-rule="evenodd" d="M201.66 30.4577L164.578 70.5779C163.969 71.2382 164.022 72.2768 164.697 72.8708L174.456 81.445C175.095 82.0058 176.059 81.9693 176.653 81.362L213.992 43.246C214.595 42.6321 214.602 41.6466 214.009 41.0228L203.992 30.4411C203.356 29.7708 202.286 29.7775 201.66 30.4544V30.4577ZM167.766 72.3498C167.395 72.7314 166.782 72.7381 166.397 72.3631C166.016 71.9915 166.013 71.3743 166.384 70.9927C166.758 70.6111 167.371 70.6078 167.753 70.9794C168.134 71.3544 168.14 71.9649 167.766 72.3498Z" fill="url(#paint75_linear_27_684)"/>
<path fill-rule="evenodd" clip-rule="evenodd" d="M165.887 70.5049C165.241 71.1619 165.251 72.2204 165.91 72.8642C166.57 73.5112 167.627 73.5013 168.27 72.8443C168.916 72.1873 168.906 71.1254 168.246 70.4784C167.59 69.8313 166.53 69.8446 165.887 70.5049ZM167.686 72.2735C167.358 72.6087 166.818 72.6153 166.48 72.2835C166.146 71.955 166.139 71.4108 166.47 71.0757C166.802 70.7372 167.342 70.7339 167.676 71.0657C168.014 71.3975 168.018 71.9351 167.686 72.2735Z" fill="url(#paint76_linear_27_684)"/>
<path fill-rule="evenodd" clip-rule="evenodd" d="M166.384 70.996C166.01 71.3776 166.016 71.9914 166.397 72.3664C166.782 72.7414 167.395 72.738 167.766 72.3564C168.14 71.9715 168.137 71.3577 167.753 70.9827C167.372 70.6078 166.759 70.6144 166.384 70.9993V70.996ZM167.683 72.2735C167.355 72.6086 166.815 72.6153 166.477 72.2834C166.142 71.9549 166.136 71.4108 166.467 71.0756C166.798 70.7372 167.338 70.7338 167.673 71.0657C168.011 71.3975 168.014 71.935 167.683 72.2735Z" fill="url(#paint77_linear_27_684)"/>
<path fill-rule="evenodd" clip-rule="evenodd" d="M206.477 78.6676L207.607 89.4517L218.343 85.4898L216.888 75.147L206.477 78.6676Z" fill="#F4E5F7"/>
<path fill-rule="evenodd" clip-rule="evenodd" d="M223.946 88.2837L218.343 85.4898L216.888 75.147L222.743 78.8501L223.946 88.2837Z" fill="#EBCFF0"/>
<path fill-rule="evenodd" clip-rule="evenodd" d="M207.607 89.4518L217.034 91.9736L223.946 88.2838L218.343 85.4899L207.607 89.4518Z" fill="#DBB9E9"/>
<path fill-rule="evenodd" clip-rule="evenodd" d="M151.563 124.369H123.259L125.598 113.811L125.681 113.432H129.207C129.22 113.499 129.303 113.9 129.505 114.471C130.184 116.359 132.215 120.135 137.6 120.135C141.086 120.135 143.034 118.552 144.111 116.923C145.261 115.201 145.433 113.432 145.433 113.432H149.144L150.141 117.938L151.566 124.369H151.563Z" fill="url(#paint78_linear_27_684)"/>
<path fill-rule="evenodd" clip-rule="evenodd" d="M114.713 124.369C114.713 124.369 114.054 125.494 115.373 126.503H158.568C158.568 126.503 160.132 125.617 159.8 124.369H114.713Z" fill="url(#paint79_linear_27_684)"/>
<g style="mix-blend-mode:multiply" opacity="0.5">
<path fill-rule="evenodd" clip-rule="evenodd" d="M129.207 113.432C129.22 113.499 129.303 113.9 129.505 114.471L125.595 113.811L125.549 113.804L125.681 113.432H129.207Z" fill="#614881"/>
</g>
<g style="mix-blend-mode:multiply" opacity="0.5">
<path fill-rule="evenodd" clip-rule="evenodd" d="M150.141 117.938L144.114 116.923C145.264 115.201 145.436 113.432 145.436 113.432H149.147L150.145 117.938H150.141Z" fill="#614881"/>
</g>
<path fill-rule="evenodd" clip-rule="evenodd" d="M86.9098 108.223L93.2982 57.763C93.5898 55.4503 95.5547 53.7148 97.8841 53.7148H177.723C180.075 53.7148 182.054 55.4868 182.315 57.8294L187.955 108.289C188.263 111.033 186.119 113.432 183.362 113.432H91.4957C88.7123 113.432 86.5586 110.987 86.9098 108.219V108.223Z" fill="url(#paint80_linear_27_684)"/>
<path fill-rule="evenodd" clip-rule="evenodd" d="M86.7375 107.904L93.4275 55.0488C93.6428 53.3333 95.1008 52.0491 96.8271 52.0491H178.793C180.536 52.0491 182.004 53.3631 182.196 55.0986L188.104 107.954C188.333 109.988 186.742 111.767 184.701 111.767H90.1372C88.0728 111.767 86.479 109.955 86.7375 107.904Z" fill="url(#paint81_radial_27_684)"/>
<g style="mix-blend-mode:soft-light" opacity="0.6">
<path fill-rule="evenodd" clip-rule="evenodd" d="M131.122 52.0491L185.433 84.0597L182.196 55.0986C182.196 55.0986 181.941 52.0491 178.793 52.0491H131.122Z" fill="white"/>
</g>
<g style="mix-blend-mode:soft-light" opacity="0.6">
<path fill-rule="evenodd" clip-rule="evenodd" d="M88.6064 93.1516L118.524 111.767L89.5805 111.717C89.5805 111.717 86.7873 110.848 86.9099 108.22C87.0325 105.595 86.7375 107.904 86.7375 107.904L88.6064 93.1516Z" fill="white"/>
</g>
<path fill-rule="evenodd" clip-rule="evenodd" d="M95.0345 57.4578L179.144 55.7921L185.695 105.449H89.0934L95.0345 57.4578Z" fill="url(#paint82_linear_27_684)"/>
<path fill-rule="evenodd" clip-rule="evenodd" d="M96.2373 105.449L100.923 61.3965H174.396L178.962 105.449H96.2373Z" fill="white"/>
<path fill-rule="evenodd" clip-rule="evenodd" d="M89.5738 105.449L95.5448 57.9124L178.962 56.1471L185.168 105.449H185.695L179.144 55.7921L95.0345 57.4578L89.0934 105.449H89.5738Z" fill="url(#paint83_linear_27_684)"/>
<path fill-rule="evenodd" clip-rule="evenodd" d="M180.254 108.654V109.45H183.478V108.465L180.254 108.654Z" fill="url(#paint84_linear_27_684)"/>
<path fill-rule="evenodd" clip-rule="evenodd" d="M180.254 108.654L182.388 108.551V109.45H180.254V108.654Z" fill="#FF6BFF"/>
<path fill-rule="evenodd" clip-rule="evenodd" d="M170.977 81.1364C161.096 81.1364 157.57 64.3895 146.599 65.1527C135.632 65.9126 134.588 81.1364 129.644 81.1364C124.7 81.1364 124.608 72.7381 117.861 73.1329C111.115 73.5245 108.454 81.1364 108.454 81.1364H170.97H170.977Z" fill="url(#paint85_linear_27_684)"/>
<path fill-rule="evenodd" clip-rule="evenodd" d="M130.986 81.1364H170.977C170.977 81.1364 172.382 69.5824 163.66 67.4356C154.939 65.2887 151.593 75.0475 148.08 75.7144C144.565 76.3814 143.899 73.8828 139.72 74.135C135.539 74.3838 135.254 79.4275 132.689 80.2836C130.124 81.1397 129.27 78.6809 126.228 79.245C123.186 79.8091 122.142 81.1397 122.142 81.1397H130.986V81.1364Z" fill="url(#paint86_linear_27_684)"/>
<path fill-rule="evenodd" clip-rule="evenodd" d="M102.115 62.5313L101.943 63.613H111.38L111.569 62.5313H102.115Z" fill="url(#paint87_linear_27_684)"/>
<path fill-rule="evenodd" clip-rule="evenodd" d="M128.289 62.5313L128.12 63.613H131.97L132.159 62.5313H128.289Z" fill="#DDAEE5"/>
<path fill-rule="evenodd" clip-rule="evenodd" d="M135.535 62.5313L135.366 63.613H139.217L139.406 62.5313H135.535Z" fill="#DDAEE5"/>
<path fill-rule="evenodd" clip-rule="evenodd" d="M142.782 62.5313L142.613 63.613H146.463L146.652 62.5313H142.782Z" fill="#DDAEE5"/>
<path fill-rule="evenodd" clip-rule="evenodd" d="M150.032 62.5313L149.86 63.613H153.71L153.899 62.5313H150.032Z" fill="#DDAEE5"/>
<path fill-rule="evenodd" clip-rule="evenodd" d="M167.189 62.5313L167.02 63.613H170.871L171.059 62.5313H167.189Z" fill="#DDAEE5"/>
<path fill-rule="evenodd" clip-rule="evenodd" d="M100.916 83.5752L174.091 82.5565L174.635 88.3302L100.512 88.3136L100.916 83.5752Z" fill="#F0DBF4"/>
<path fill-rule="evenodd" clip-rule="evenodd" d="M121.271 104.248H109.206L110.886 89.3954H122.225L121.271 104.248Z" fill="#CEECF4"/>
<path fill-rule="evenodd" clip-rule="evenodd" d="M113.186 93.4071L112.662 98.5669H118.822L119.213 93.4071H113.186ZM117.831 97.661H113.815L114.143 94.2831H118.103L117.831 97.661Z" fill="white"/>
<path fill-rule="evenodd" clip-rule="evenodd" d="M114.216 97.3558H117.573L116.665 95.5308L115.817 96.2342L115.552 96.0418L114.216 97.3558Z" fill="white"/>
<path fill-rule="evenodd" clip-rule="evenodd" d="M115.959 95.3615C115.933 95.6701 115.651 95.919 115.33 95.919C115.008 95.919 114.773 95.6668 114.803 95.3615C114.833 95.0529 115.114 94.8041 115.432 94.8041C115.75 94.8041 115.986 95.0529 115.959 95.3615Z" fill="white"/>
<path fill-rule="evenodd" clip-rule="evenodd" d="M135.91 104.248H123.845L124.647 89.3954H135.986L135.91 104.248Z" fill="#CEC4F4"/>
<path fill-rule="evenodd" clip-rule="evenodd" d="M127.182 93.4071L126.963 98.5669H133.123L133.209 93.4071H127.182ZM132.079 97.661H128.063L128.193 94.2831H132.152L132.079 97.661Z" fill="white"/>
<path fill-rule="evenodd" clip-rule="evenodd" d="M128.448 97.3558H131.804L130.791 95.5308L129.982 96.2342L129.707 96.0418L128.448 97.3558Z" fill="white"/>
<path fill-rule="evenodd" clip-rule="evenodd" d="M130.071 95.3615C130.062 95.6701 129.796 95.919 129.475 95.919C129.154 95.919 128.905 95.6668 128.915 95.3615C128.925 95.0529 129.193 94.8041 129.512 94.8041C129.83 94.8041 130.081 95.0529 130.071 95.3615Z" fill="white"/>
<path fill-rule="evenodd" clip-rule="evenodd" d="M150.549 104.248H138.484L138.408 89.3954H149.747L150.549 104.248Z" fill="#CED1F4"/>
<path fill-rule="evenodd" clip-rule="evenodd" d="M141.182 93.4071L141.268 98.5669H147.428L147.209 93.4071H141.182ZM146.331 97.661H142.315L142.242 94.2831H146.202L146.331 97.661Z" fill="white"/>
<path fill-rule="evenodd" clip-rule="evenodd" d="M142.679 97.3558H146.036L144.913 95.5308L144.147 96.2342L143.859 96.0418L142.679 97.3558Z" fill="white"/>
<path fill-rule="evenodd" clip-rule="evenodd" d="M144.187 95.3615C144.197 95.6701 143.945 95.919 143.624 95.919C143.302 95.919 143.037 95.6668 143.031 95.3615C143.024 95.0529 143.276 94.8041 143.594 94.8041C143.912 94.8041 144.177 95.0529 144.187 95.3615Z" fill="white"/>
<path fill-rule="evenodd" clip-rule="evenodd" d="M165.188 104.248H153.123L152.166 89.3954H163.505L165.188 104.248Z" fill="#FFC4F4"/>
<path fill-rule="evenodd" clip-rule="evenodd" d="M155.178 93.4071L155.569 98.5669H161.729L161.205 93.4071H155.178ZM160.579 97.661H156.563L156.291 94.2831H160.251L160.579 97.661Z" fill="white"/>
<path fill-rule="evenodd" clip-rule="evenodd" d="M156.907 97.3558H160.267L159.035 95.5308L158.312 96.2342L158.011 96.0418L156.907 97.3558Z" fill="white"/>
<path fill-rule="evenodd" clip-rule="evenodd" d="M158.299 95.3615C158.326 95.6701 158.09 95.919 157.769 95.919C157.448 95.919 157.169 95.6668 157.143 95.3615C157.116 95.0529 157.355 94.8041 157.673 94.8041C157.991 94.8041 158.269 95.0529 158.299 95.3615Z" fill="white"/>
<path d="M132.288 75.3531C133.514 74.1259 133.514 72.1363 132.288 70.9091C131.063 69.682 129.076 69.682 127.851 70.9091C126.625 72.1363 126.625 74.1259 127.851 75.3531C129.076 76.5802 131.063 76.5802 132.288 75.3531Z" fill="url(#paint88_linear_27_684)"/>
<path d="M123.325 74.1317C124.249 74.1317 124.998 73.3815 124.998 72.456C124.998 71.5306 124.249 70.7803 123.325 70.7803C122.401 70.7803 121.652 71.5306 121.652 72.456C121.652 73.3815 122.401 74.1317 123.325 74.1317Z" fill="url(#paint89_linear_27_684)"/>
<path fill-rule="evenodd" clip-rule="evenodd" d="M108.431 78.5913C108.431 79.162 107.967 79.6266 107.397 79.6266C106.827 79.6266 106.363 79.162 106.363 78.5913C106.363 78.0206 106.827 77.556 107.397 77.556C107.967 77.556 108.431 78.0206 108.431 78.5913Z" fill="url(#paint90_linear_27_684)"/>
<path d="M96.3201 105.459L96.1544 105.442L100.846 61.3135H174.469L174.476 61.3865L179.045 105.442L178.879 105.459L174.32 61.4794H100.995L96.3201 105.459Z" fill="#130025"/>
<g style="mix-blend-mode:soft-light" opacity="0.6">
<path fill-rule="evenodd" clip-rule="evenodd" d="M142.613 57.1426L181.6 78.6112L178.962 56.1471L142.613 57.1426Z" fill="white"/>
</g>
<path fill-rule="evenodd" clip-rule="evenodd" d="M145.433 113.432H129.207V113.426L145.433 113.432Z" fill="#614881"/>
<g style="mix-blend-mode:multiply" opacity="0.5">
<path fill-rule="evenodd" clip-rule="evenodd" d="M136.311 81.5047L136.891 98.6299H177.508L175.191 81.153L136.311 81.5047Z" fill="#8148B0"/>
</g>
<path fill-rule="evenodd" clip-rule="evenodd" d="M139.406 76.2752L139.893 94.283H180.91L178.863 76.2752H139.406Z" fill="white"/>
<path fill-rule="evenodd" clip-rule="evenodd" d="M139.488 79.2583H179.201L178.863 76.2752H139.406L139.488 79.2583Z" fill="url(#paint91_linear_27_684)"/>
<path d="M181.003 94.366H139.813V94.2863L139.319 76.1923H178.936L178.942 76.2653L181 94.366H181.003ZM139.976 94.2001H180.818L178.79 76.3549H139.492L139.976 94.2001Z" fill="#130025"/>
<path fill-rule="evenodd" clip-rule="evenodd" d="M151.043 85.1182H147.113L146.844 81.153H150.777L151.043 85.1182Z" fill="#A900FF"/>
<path fill-rule="evenodd" clip-rule="evenodd" d="M155.645 85.1182H151.712L151.443 81.153H155.377L155.645 85.1182Z" fill="#FF00FF"/>
<path fill-rule="evenodd" clip-rule="evenodd" d="M160.181 85.1182H156.251L155.983 81.153H159.913L160.181 85.1182Z" fill="#FF60FF"/>
<path fill-rule="evenodd" clip-rule="evenodd" d="M164.717 85.1182H160.788L160.519 81.153H164.449L164.717 85.1182Z" fill="#FF86FF"/>
<path fill-rule="evenodd" clip-rule="evenodd" d="M169.257 85.1182H165.324L165.055 81.153H168.988L169.257 85.1182Z" fill="#FFB0FF"/>
<path fill-rule="evenodd" clip-rule="evenodd" d="M173.793 85.1182H169.863L169.595 81.153H173.525L173.793 85.1182Z" fill="#FFDBFF"/>
<path fill-rule="evenodd" clip-rule="evenodd" d="M151.371 89.9362H147.437L147.169 85.9709H151.102L151.371 89.9362Z" fill="#2F56FF"/>
<path fill-rule="evenodd" clip-rule="evenodd" d="M155.97 89.9362H152.037L151.771 85.9709H155.701L155.97 89.9362Z" fill="#2E8EFF"/>
<path fill-rule="evenodd" clip-rule="evenodd" d="M160.506 89.9362H156.576L156.308 85.9709H160.238L160.506 89.9362Z" fill="#7F97FF"/>
<path fill-rule="evenodd" clip-rule="evenodd" d="M165.045 89.9362H161.112L160.844 85.9709H164.777L165.045 89.9362Z" fill="#CEC2FF"/>
<path fill-rule="evenodd" clip-rule="evenodd" d="M169.582 89.9362H165.649L165.383 85.9709H169.313L169.582 89.9362Z" fill="#2FE7FF"/>
<path fill-rule="evenodd" clip-rule="evenodd" d="M174.118 89.9362H170.188L169.92 85.9709H173.849L174.118 89.9362Z" fill="#B0BFFF"/>
<g style="mix-blend-mode:soft-light">
<path fill-rule="evenodd" clip-rule="evenodd" d="M175.331 76.6502L175.559 78.8833H178.76L178.505 76.6502H175.331Z" fill="#DDC2FF"/>
</g>
<g style="mix-blend-mode:soft-light" opacity="0.6">
<path fill-rule="evenodd" clip-rule="evenodd" d="M129.508 115.685C129.508 115.685 131.834 120.44 137.199 120.44C142.563 120.44 144.88 116.455 144.88 116.455C144.88 116.455 142.461 120.858 137.192 120.858C131.924 120.858 129.505 115.689 129.505 115.689L129.508 115.685Z" fill="white"/>
</g>
<path fill-rule="evenodd" clip-rule="evenodd" d="M139.273 120.225C139.273 120.225 140.595 120.046 142.315 118.974C142.315 118.974 141.175 120.527 139.273 120.225Z" fill="white"/>
<path d="M176.451 76.9549L176.233 77.2052L177.785 78.5579L178.003 78.3076L176.451 76.9549Z" fill="white"/>
<path d="M177.654 76.9621L176.302 78.3159L176.536 78.5505L177.888 77.1967L177.654 76.9621Z" fill="white"/>
<path fill-rule="evenodd" clip-rule="evenodd" d="M141.042 123.204L144.323 129.778L180.891 130.504C180.891 130.504 182.153 128.749 182.15 128.616C182.07 125.739 179.645 117.869 168.465 115.679C155.34 113.107 141.042 123.208 141.042 123.208V123.204Z" fill="url(#paint92_radial_27_684)"/>
<path fill-rule="evenodd" clip-rule="evenodd" d="M141.042 123.204C164.698 113.369 158.475 133.013 182.07 128.029C182.07 128.029 181.106 116.867 165.655 115.456C152.166 114.225 141.042 123.204 141.042 123.204Z" fill="url(#paint93_radial_27_684)"/>
<g style="mix-blend-mode:multiply" opacity="0.5">
<path fill-rule="evenodd" clip-rule="evenodd" d="M144.323 129.778C153.859 129.778 170.788 129.37 175.811 128.822C180.838 128.271 182.15 128.613 182.15 128.613L180.891 130.501L144.323 129.774V129.778Z" fill="#614881"/>
</g>
<path style="mix-blend-mode:multiply" opacity="0.8" fill-rule="evenodd" clip-rule="evenodd" d="M142.159 125.159C142.159 125.159 147.033 122.889 154.426 124.807C161.821 126.725 165.844 128.371 166.275 128.819C166.705 129.267 165.745 129.625 165.745 129.625L174.522 128.948C174.522 128.948 172.222 129.353 166.444 127.369C160.665 125.384 156.835 117.049 141.039 123.201L142.156 125.155L142.159 125.159Z" fill="url(#paint94_linear_27_684)"/>
<g style="mix-blend-mode:multiply" opacity="0.5">
<path d="M175.851 129.097C173.962 129.097 171.662 128.905 168.979 128.338C166.696 127.856 164.903 126.489 163.008 125.039C158.684 121.738 153.783 117.995 141.109 123.357L140.979 123.052C153.833 117.613 158.816 121.419 163.21 124.774C165.075 126.201 166.838 127.548 169.048 128.012C177.411 129.771 181.961 127.893 182.007 127.876L182.136 128.182C182.107 128.195 179.93 129.097 175.851 129.097Z" fill="#614881"/>
</g>
<path d="M143.007 123.145C145.781 121.134 149.32 120.258 152.729 120.553C154.436 120.706 156.122 121.114 157.703 121.784C159.29 122.448 160.731 123.41 162.09 124.442C163.452 125.471 164.817 126.509 166.354 127.249C167.12 127.621 167.915 127.926 168.73 128.168C169.548 128.401 170.383 128.573 171.228 128.696C172.915 128.935 174.628 128.968 176.334 128.908C178.041 128.852 179.741 128.689 181.437 128.474C178.061 128.951 174.621 129.253 171.215 128.802C170.367 128.683 169.525 128.513 168.7 128.284C167.875 128.046 167.07 127.744 166.298 127.372C164.744 126.635 163.362 125.597 161.997 124.575C160.632 123.549 159.22 122.581 157.65 121.917C156.089 121.247 154.416 120.829 152.723 120.669C151.029 120.513 149.306 120.649 147.656 121.067C146.009 121.489 144.406 122.152 143.011 123.148L143.007 123.145Z" fill="#614881"/>
<path fill-rule="evenodd" clip-rule="evenodd" d="M157.938 116.263L159.999 116.001C159.999 116.001 155.294 113.804 151.705 116.183C151.705 116.183 154.883 115.075 157.938 116.263Z" fill="url(#paint95_radial_27_684)"/>
<g style="mix-blend-mode:multiply" opacity="0.5">
<path d="M145.86 120.543L145.781 120.397C153.985 115.977 159.485 115.705 163.786 116.024L163.773 116.19C159.499 115.874 154.025 116.143 145.857 120.543H145.86Z" fill="#614881"/>
</g>
<path fill-rule="evenodd" clip-rule="evenodd" d="M148.703 118.977C148.703 118.977 151.947 113.429 157.938 116.266C157.938 116.266 153.829 116.867 148.703 118.977Z" fill="url(#paint96_radial_27_684)"/>
<g style="mix-blend-mode:multiply" opacity="0.5">
<path d="M153.617 120.619L153.521 120.483C153.614 120.42 162.733 114.076 170.36 116.037L170.321 116.196C162.769 114.252 153.71 120.553 153.617 120.616V120.619Z" fill="#614881"/>
</g>
<path fill-rule="evenodd" clip-rule="evenodd" d="M165.085 116.346C165.085 116.346 172.663 116.9 177.792 124.714H178.75C178.75 124.714 174.708 117.321 165.589 116.263L165.085 116.346Z" fill="url(#paint97_linear_27_684)"/>
<path fill-rule="evenodd" clip-rule="evenodd" d="M152.616 115.669C152.616 115.669 155.327 114.358 158.952 116.133L159.545 116.05C159.545 116.05 155.903 114.275 152.616 115.669Z" fill="url(#paint98_linear_27_684)"/>
<path style="mix-blend-mode:screen" opacity="0.5" fill-rule="evenodd" clip-rule="evenodd" d="M161.808 117.806C162.02 119.086 159.055 120.649 155.184 121.293C151.314 121.94 148.004 121.426 147.789 120.142C147.573 118.858 150.542 117.298 154.412 116.654C158.283 116.007 161.593 116.525 161.808 117.806Z" fill="url(#paint99_radial_27_684)"/>
<path fill-rule="evenodd" clip-rule="evenodd" d="M145.913 122.096L147.113 123.148C147.113 123.148 152.792 121.97 157.534 124.137L159.041 123.148C159.041 123.148 152.812 119.528 145.913 122.096Z" fill="url(#paint100_radial_27_684)"/>
<g style="mix-blend-mode:multiply" opacity="0.5">
<path d="M152.472 121.014L152.142 121.044L152.309 122.938L152.639 122.908L152.472 121.014Z" fill="#614881"/>
</g>
<path fill-rule="evenodd" clip-rule="evenodd" d="M83.7686 41.255C83.7686 41.255 81.8302 40.4885 79.9415 41.839C78.2615 43.4417 78.6459 45.4957 78.6459 45.4957L88.3578 55.9015L90.0145 54.0467L92.165 52.7526L83.7719 41.255H83.7686Z" fill="url(#paint101_linear_27_684)"/>
<path fill-rule="evenodd" clip-rule="evenodd" d="M88.6593 58.9178C88.6593 58.9178 90.2763 54.3022 95.2035 53.5025C95.2035 53.5025 93.4572 56.1139 88.6593 58.9178Z" fill="url(#paint102_linear_27_684)"/>
<path fill-rule="evenodd" clip-rule="evenodd" d="M88.6593 58.9178L87.3008 57.5241C87.3008 57.5241 88.9642 52.59 94.3088 51.9695L95.2035 53.5025C95.2035 53.5025 90.601 54.5411 88.6593 58.9178Z" fill="url(#paint103_linear_27_684)"/>
<path style="mix-blend-mode:screen" fill-rule="evenodd" clip-rule="evenodd" d="M78.646 45.4957C78.646 45.4957 79.978 42.1742 83.7686 41.255C83.7686 41.255 81.4657 40.6378 79.9415 41.839C78.4173 43.0402 78.646 45.4957 78.646 45.4957Z" fill="url(#paint104_linear_27_684)"/>
<path fill-rule="evenodd" clip-rule="evenodd" d="M102.619 68.2917C102.778 68.3248 102.924 68.3613 103.056 68.4045H103.06C105.31 69.1013 104.041 70.7836 104.041 70.7836C104.041 70.7836 102.377 71.6065 101.96 69.7683C101.907 69.5327 101.873 69.2506 101.867 68.9188C101.867 68.9188 100.409 68.8558 99.5507 68.4974C98.6892 68.139 90.1603 57.3549 90.1603 57.3549C90.1603 57.3549 90.4684 56.6548 91.605 55.7157C92.6587 54.843 93.4837 54.6041 93.4837 54.6041C93.4837 54.6041 102.45 65.0232 102.642 65.9357C102.831 66.8483 102.619 68.2917 102.619 68.2917Z" fill="url(#paint105_linear_27_684)"/>
<path fill-rule="evenodd" clip-rule="evenodd" d="M95.4818 63.2911C95.4818 63.2911 96.4692 61.7449 97.9338 60.5735C97.9338 60.5735 101.96 65.2057 102.165 65.9457C102.371 66.6857 102.364 67.9499 101.993 68.2983C101.622 68.6467 100.303 68.6633 99.5011 68.0096C98.6992 67.3559 95.4851 63.2911 95.4851 63.2911H95.4818Z" fill="url(#paint106_linear_27_684)"/>
<path fill-rule="evenodd" clip-rule="evenodd" d="M102.344 68.9022C101.97 69.3667 102.808 71.1652 103.779 70.465C104.75 69.7649 103.033 68.0461 102.344 68.9022Z" fill="url(#paint107_linear_27_684)"/>
<g style="mix-blend-mode:multiply" opacity="0.5">
<path fill-rule="evenodd" clip-rule="evenodd" d="M91.3499 58.8481C91.3499 58.8481 92.5825 56.4491 94.7263 56.0542L93.9145 54.9791L95.2068 53.5025C95.2068 53.5025 90.7468 54.5477 88.6626 58.9178L90.4221 57.8128L91.3532 58.8481H91.3499Z" fill="#BD4881"/>
</g>
<g style="mix-blend-mode:multiply" opacity="0.5">
<path fill-rule="evenodd" clip-rule="evenodd" d="M102.619 68.2916C102.778 68.3248 102.924 68.3613 103.056 68.4045C102.97 68.3912 101.844 68.2618 101.956 69.7649C101.903 69.5293 101.87 69.2473 101.864 68.9155C101.864 68.9155 100.406 68.8524 99.5475 68.4941C99.5475 68.4941 101.731 67.4521 102.642 65.9357C102.831 66.8482 102.619 68.2916 102.619 68.2916Z" fill="#BD4881"/>
</g>
<g style="mix-blend-mode:multiply" opacity="0.5">
<path fill-rule="evenodd" clip-rule="evenodd" d="M87.0623 54.5112C87.0623 54.5112 87.7018 55.4071 89.7528 53.7281C91.8039 52.0491 90.9622 51.1035 90.9622 51.1035L92.0259 52.5568C92.0259 52.5568 89.8589 53.2337 88.2253 55.7556L87.0656 54.5112H87.0623Z" fill="#FFA2BF"/>
</g>
<path style="mix-blend-mode:screen" opacity="0.5" fill-rule="evenodd" clip-rule="evenodd" d="M85.8594 47.8018C87.9038 50.2805 89.0072 52.7526 88.3213 53.32C87.6354 53.8874 85.4187 52.3378 83.3743 49.8591C81.3299 47.3804 80.2265 44.9084 80.9124 44.341C81.5983 43.7736 83.815 45.3232 85.8594 47.8018Z" fill="url(#paint108_radial_27_684)"/>
<path style="mix-blend-mode:screen" opacity="0.5" fill-rule="evenodd" clip-rule="evenodd" d="M87.8608 47.0055C89.8356 49.5439 91.1908 51.7903 90.886 52.0259C90.5811 52.2615 88.7355 50.4 86.7607 47.8616C84.7858 45.3232 83.4306 43.0767 83.7355 42.8412C84.0403 42.6056 85.8859 44.4671 87.8608 47.0055Z" fill="url(#paint109_radial_27_684)"/>
<path fill-rule="evenodd" clip-rule="evenodd" d="M95.4818 63.2911C95.4818 63.2911 97.2545 63.175 97.9338 60.5735C97.9338 60.5735 96.224 61.6785 95.4818 63.2911Z" fill="url(#paint110_linear_27_684)"/>
<path fill-rule="evenodd" clip-rule="evenodd" d="M189.751 23.443C184.694 30.5605 173.674 44.0058 173.674 44.0058L174.081 44.3111L162.958 59.2297L162.55 58.9244L161.931 59.7573L161.407 64.1207L161.947 64.5255L162.487 64.9303L166.517 63.1883L167.136 62.3554L166.729 62.0501L177.852 47.1315L178.26 47.4368C178.26 47.4368 188.001 33.0359 193.379 26.1606C193.379 26.1606 192.746 24.6774 192.007 24.2095C191.351 23.6354 189.751 23.4463 189.751 23.4463V23.443Z" fill="url(#paint111_radial_27_684)"/>
<path fill-rule="evenodd" clip-rule="evenodd" d="M162.55 58.9244L162.444 58.5163C162.444 58.5163 169.204 50.7218 173.356 43.8831C173.356 43.8831 175.871 44.7889 178.551 47.5729C178.551 47.5729 172.037 55.3374 167.464 62.445L167.136 62.3554C167.136 62.3554 163.694 60.0924 162.55 58.9244Z" fill="url(#paint112_linear_27_684)"/>
<path fill-rule="evenodd" clip-rule="evenodd" d="M161.553 64.2302L160.96 65.0232C160.827 65.2024 160.887 65.4778 161.099 65.6338C161.311 65.7897 161.589 65.7731 161.722 65.5939L162.315 64.8009L161.553 64.2302Z" fill="url(#paint113_radial_27_684)"/>
<g style="mix-blend-mode:multiply" opacity="0.5">
<path fill-rule="evenodd" clip-rule="evenodd" d="M173.869 43.7669C173.869 43.7669 176.815 44.8619 178.684 46.8097L178.303 47.3207C178.303 47.3207 176.096 44.842 173.674 44.0058L173.866 43.7702L173.869 43.7669Z" fill="#614881"/>
</g>
<path style="mix-blend-mode:screen" opacity="0.5" fill-rule="evenodd" clip-rule="evenodd" d="M190.649 23.6122C191.209 23.7781 175.751 43.2957 175.397 43.7901C175.042 44.2845 174.204 43.9029 174.204 43.9029C174.204 43.9029 175.728 44.5865 176.437 45.051C176.437 45.051 175.708 44.3343 175.844 43.9693C175.98 43.6043 190.735 24.3389 191.007 24.1464C191.278 23.9573 191.852 24.0867 191.852 24.0867C191.852 24.0867 191.215 23.7283 190.642 23.6089L190.649 23.6122Z" fill="url(#paint114_linear_27_684)"/>
<path fill-rule="evenodd" clip-rule="evenodd" d="M187.219 26.8873C187.219 26.8873 189.257 27.6239 190.801 29.5651L190.957 29.356C190.957 29.356 189.811 27.5045 187.395 26.655L187.219 26.8873Z" fill="url(#paint115_linear_27_684)"/>
<path style="mix-blend-mode:screen" opacity="0.5" fill-rule="evenodd" clip-rule="evenodd" d="M161.927 59.7573C161.927 59.7573 163.422 62.0933 166.513 63.1883L162.484 64.9303L161.401 64.1207L161.924 59.7573H161.927Z" fill="url(#paint116_linear_27_684)"/>
<path fill-rule="evenodd" clip-rule="evenodd" d="M163.694 57.6369C163.694 57.6369 164.012 58.1479 164.582 58.5361L172.123 48.4223L171.298 47.8051C171.298 47.8051 166.858 53.4925 163.694 57.6369Z" fill="url(#paint117_linear_27_684)"/>
<path fill-rule="evenodd" clip-rule="evenodd" d="M163.829 57.8228L167.352 53.0977L167.7 53.1242L167.577 52.799L171.414 47.8881L172.126 48.419L164.585 58.5329C164.585 58.5329 163.965 58.1446 163.833 57.8228H163.829Z" fill="url(#paint118_radial_27_684)"/>
<g style="mix-blend-mode:multiply">
<path fill-rule="evenodd" clip-rule="evenodd" d="M172.123 48.419L168.256 53.2669L167.577 52.799L167.7 53.1242L167.352 53.0977L168.038 53.612L164.582 58.5328L172.123 48.419Z" fill="#614881"/>
</g>
<path d="M41.9389 109.371H36.1005L35.1628 112.138H31.1733L36.8361 96.4697H41.2497L46.9125 112.138H42.8766L41.9422 109.371H41.9389ZM40.9581 106.424L39.0197 100.687L37.1012 106.424H40.9581Z" fill="url(#paint119_linear_27_684)"/>
<path d="M39.2915 109.241H33.1747L32.1939 112.138H28.0156L33.9435 95.7297H38.5658L44.4937 112.138H40.2689L39.2881 109.241H39.2915ZM38.2643 106.155L36.2331 100.15L34.2251 106.155H38.2643Z" fill="url(#paint120_linear_27_684)"/>
<path d="M38.5658 95.7297L41.2497 96.4697L46.9125 112.138H44.4936L38.5658 95.7297Z" fill="#7C77FF"/>
<path d="M47.3864 102.316C47.8801 101.328 48.5527 100.568 49.401 100.037C50.2492 99.5059 49.56 98.9086 50.6071 98.9086C51.5018 98.9086 53.9272 99.4196 54.6032 99.7846C55.2791 100.15 55.7994 100.627 56.1638 101.221V99.4196H60.0572V112.142H56.1638V110.34C55.7828 110.934 55.2559 111.412 54.58 111.777C53.904 112.142 50.9716 112.324 50.0736 112.324C49.0398 112.324 50.2493 112.055 49.3977 111.514C48.5461 110.974 47.8768 110.207 47.3831 109.212C46.8894 108.216 46.6442 107.065 46.6442 105.757C46.6442 104.45 46.8894 103.302 47.3831 102.313L47.3864 102.316ZM55.3554 103.478C54.8153 102.917 54.1592 102.635 53.3871 102.635C52.6151 102.635 51.9557 102.914 51.4189 103.468C50.8788 104.022 50.6104 104.785 50.6104 105.761C50.6104 106.736 50.8788 107.506 51.4189 108.073C51.959 108.644 52.6151 108.93 53.3871 108.93C54.1592 108.93 54.8186 108.647 55.3554 108.087C55.8955 107.526 56.1638 106.756 56.1638 105.784C56.1638 104.812 55.8955 104.045 55.3554 103.481V103.478Z" fill="url(#paint121_linear_27_684)"/>
<path d="M45.1166 102.064C45.6235 101.052 46.3094 100.272 47.1809 99.7282C48.0523 99.184 49.0232 98.9086 50.1001 98.9086C51.0179 98.9086 51.8231 99.0944 52.5156 99.4693C53.2081 99.8443 53.7416 100.335 54.116 100.943V99.0977H58.1088V112.142H54.116V110.297C53.7283 110.904 53.1849 111.395 52.4924 111.77C51.7999 112.145 50.9947 112.331 50.0769 112.331C49.0199 112.331 48.0523 112.055 47.1842 111.501C46.3127 110.947 45.6235 110.161 45.1199 109.142C44.6129 108.123 44.3611 106.942 44.3611 105.601C44.3611 104.261 44.6129 103.086 45.1199 102.071L45.1166 102.064ZM53.2843 103.255C52.731 102.678 52.0583 102.389 51.2664 102.389C50.4745 102.389 49.7985 102.675 49.2485 103.242C48.6951 103.81 48.4201 104.593 48.4201 105.591C48.4201 106.59 48.6951 107.38 49.2485 107.964C49.8019 108.548 50.4745 108.84 51.2664 108.84C52.0583 108.84 52.7343 108.551 53.2843 107.974C53.8377 107.397 54.1127 106.61 54.1127 105.615C54.1127 104.619 53.8377 103.829 53.2843 103.255Z" fill="url(#paint122_linear_27_684)"/>
<path d="M58.1055 99.0977L60.0571 99.4228V112.145L58.1055 112.138V99.0977Z" fill="#9A0054"/>
<g style="mix-blend-mode:multiply" opacity="0.5">
<path d="M33.1747 109.241L35.6333 110.755L36.1469 109.241H33.1747Z" fill="#B15A93"/>
</g>
<g style="mix-blend-mode:multiply" opacity="0.5">
<path d="M35.2291 103.152L37.373 105.618L37.7242 104.566L36.2331 100.15L35.2291 103.152Z" fill="#B15A93"/>
</g>
<g style="mix-blend-mode:multiply" opacity="0.5">
<path d="M48.894 103.766L50.7562 104.642C50.7562 104.642 51.0975 103.089 52.6284 102.738C52.6284 102.738 50.4315 101.57 48.894 103.766Z" fill="#B15A93"/>
</g>
<path fill-rule="evenodd" clip-rule="evenodd" d="M191.524 94.3826L191.278 92.8197C191.278 92.8197 203.436 89.5414 212.73 92.8197L212.356 94.2366C212.356 94.2366 202.604 92.5609 191.524 94.3826Z" fill="url(#paint123_radial_27_684)"/>
<path style="mix-blend-mode:screen" opacity="0.5" fill-rule="evenodd" clip-rule="evenodd" d="M191.524 94.3826L191.278 92.8197C191.278 92.8197 203.128 89.5414 212.422 92.8197L212.356 94.2366C212.356 94.2366 202.604 92.5609 191.524 94.3826Z" fill="url(#paint124_linear_27_684)"/>
<path fill-rule="evenodd" clip-rule="evenodd" d="M190.155 98.7095C190.155 98.7095 203.303 96.3336 214.248 98.8555L215.209 94.8305C215.209 94.8305 203.823 91.7081 189.536 94.8305L190.155 98.7095Z" fill="url(#paint125_radial_27_684)"/>
<path style="mix-blend-mode:screen" opacity="0.5" fill-rule="evenodd" clip-rule="evenodd" d="M190.155 98.7095C190.155 98.7095 203.303 96.3336 214.248 98.8555V94.8305C214.248 94.8305 203.823 91.7081 189.536 94.8305L190.155 98.7095Z" fill="url(#paint126_linear_27_684)"/>
<path fill-rule="evenodd" clip-rule="evenodd" d="M190.155 98.7095C190.155 98.7095 201.643 100.989 214.248 98.8555C214.248 98.8555 204.638 95.6269 190.155 98.7095Z" fill="url(#paint127_linear_27_684)"/>
<path d="M191.278 98.7194C191.278 98.7194 203.585 96.8247 212.73 98.7194L209.94 126.572H193.247L191.282 98.7194H191.278Z" fill="url(#paint128_linear_27_684)"/>
<path d="M192.587 126.572C192.587 126.572 192.554 125.783 193.2 125.457H210.003C210.003 125.457 210.762 125.554 210.662 126.572H192.584H192.587Z" fill="url(#paint129_linear_27_684)"/>
<g style="mix-blend-mode:multiply" opacity="0.5">
<path fill-rule="evenodd" clip-rule="evenodd" d="M191.507 102.237C191.507 102.237 194.363 98.3777 202.203 98.3777C210.043 98.3777 212.482 101.497 212.482 101.497L212.737 98.7195C212.737 98.7195 203.528 96.4731 191.285 98.7195L191.51 102.24L191.507 102.237Z" fill="#CD4860"/>
</g>
<path d="M189.536 94.8305C189.536 94.8305 201.875 91.801 215.209 94.8305C215.209 94.8305 204.96 91.1805 189.536 94.8305Z" fill="url(#paint130_linear_27_684)"/>
<path d="M191.278 92.8197C191.278 92.8197 202.495 89.5513 212.73 92.8197C212.73 92.8197 204.665 89.1797 191.278 92.8197Z" fill="url(#paint131_linear_27_684)"/>
<g style="mix-blend-mode:multiply" opacity="0.5">
<path d="M193.2 125.454C193.2 125.454 200.927 108.784 212.197 104.045L211.855 107.45C211.855 107.45 201.872 115.642 196.547 125.454H193.197H193.2Z" fill="#FF7897"/>
<path d="M200.516 125.454C200.516 125.454 206.371 116.133 211.371 112.311L210.898 117.049C210.898 117.049 206.62 120.613 204.367 125.454H200.52H200.516Z" fill="#FF7897"/>
<path d="M192.766 119.753C192.766 119.753 200.841 103.73 211.577 98.4838L206.593 97.8766C206.593 97.8766 198.088 101.892 192.495 115.924L192.766 119.757V119.753Z" fill="#FF7897"/>
<path d="M192.113 110.519C192.113 110.519 195.371 102.084 201.279 97.7273L196.978 97.9496C196.978 97.9496 193.137 101.56 191.785 105.844L192.117 110.519H192.113Z" fill="#FF7897"/>
</g>
<g style="mix-blend-mode:multiply" opacity="0.5">
<path d="M182.196 55.0986L188.816 80.0679L185.109 81.1497L182.196 55.0986Z" fill="#963C98"/>
</g>
<path d="M19.8479 130.212C15.9777 132.008 9.99688 132.87 4.78806 131.148C-0.135804 129.519 -1.79587 123.321 2.35926 120.693C7.84642 117.222 15.1692 123.052 20.832 123.261C26.9918 123.49 25.6631 127.508 19.8479 130.209V130.212Z" fill="url(#paint132_linear_27_684)"/>
<path fill-rule="evenodd" clip-rule="evenodd" d="M75.5544 78.5714L76.0349 74.1317H80.7102L80.0343 78.5714H75.5544Z" fill="url(#paint133_linear_27_684)"/>
<path fill-rule="evenodd" clip-rule="evenodd" d="M65.4218 126.649H94.0604C97.3971 126.649 100.131 123.997 100.24 120.659L101.615 85.105C101.728 81.6076 98.9279 78.7108 95.4355 78.7108H64.0367L65.4218 126.649Z" fill="url(#paint134_linear_27_684)"/>
<path fill-rule="evenodd" clip-rule="evenodd" d="M64.9778 126.506H93.6164C96.9531 126.506 99.6867 123.855 99.7961 120.517L101.171 84.9623C101.284 81.4649 98.4839 78.5681 94.9915 78.5681H63.5928L64.9778 126.506Z" fill="url(#paint135_linear_27_684)"/>
<path fill-rule="evenodd" clip-rule="evenodd" d="M64.9314 125.7H92.6058C95.8298 125.7 98.474 123.138 98.5767 119.91L99.9054 85.553C100.015 82.1751 97.3109 79.3745 93.9345 79.3745H63.5928L64.9314 125.696V125.7Z" fill="url(#paint136_linear_27_684)"/>
<g style="mix-blend-mode:multiply" opacity="0.5">
<path fill-rule="evenodd" clip-rule="evenodd" d="M98.5369 120.417L96.3599 120.397L97.4666 84.3451C97.4666 84.3451 97.0756 82.1584 95.5216 80.798L92.6024 125.696C92.6024 125.696 97.5627 125.799 98.5336 120.414L98.5369 120.417Z" fill="#B15A93"/>
</g>
<path fill-rule="evenodd" clip-rule="evenodd" d="M60.8789 126.649H89.5175C92.8542 126.649 95.5878 123.997 95.6972 120.659L97.0723 85.105C97.1849 81.6076 94.385 78.7108 90.8926 78.7108H59.4939L60.8789 126.649Z" fill="url(#paint137_linear_27_684)"/>
<path fill-rule="evenodd" clip-rule="evenodd" d="M60.435 126.506H89.0735C92.4102 126.506 95.1439 123.855 95.2532 120.517L96.6283 84.9623C96.741 81.4649 93.9411 78.5681 90.4486 78.5681H59.0499L60.435 126.506Z" fill="url(#paint138_linear_27_684)"/>
<path fill-rule="evenodd" clip-rule="evenodd" d="M87.4135 78.5714L86.7641 126.509C86.7641 126.509 89.9881 126.649 91.5024 126.649L91.35 126.954H82.8276V77.9144C82.8276 77.9144 87.8874 78.4354 90.1604 78.2064L90.4487 78.5714H87.4102H87.4135Z" fill="url(#paint139_linear_27_684)"/>
<g style="mix-blend-mode:multiply" opacity="0.5">
<path fill-rule="evenodd" clip-rule="evenodd" d="M87.165 78.2263L86.33 126.954H91.3499L91.5023 126.649L87.165 126.509L87.662 78.5714H90.4486L90.1604 78.2064C90.1604 78.2064 88.275 78.2861 87.165 78.2296V78.2263Z" fill="#B15A93"/>
</g>
<path fill-rule="evenodd" clip-rule="evenodd" d="M66.4656 78.5715L65.7797 75.2466H71.1674L72.1118 78.5715H66.4656Z" fill="url(#paint140_linear_27_684)"/>
<g style="mix-blend-mode:multiply" opacity="0.5">
<path fill-rule="evenodd" clip-rule="evenodd" d="M58.4899 112.125L56.2301 126.649L60.4349 126.506L60.0174 112.125H58.4899Z" fill="#963C98"/>
</g>
<path fill-rule="evenodd" clip-rule="evenodd" d="M99.362 12.8182L104.193 16.6407H92.3506L88.2816 12.5162L99.362 12.8182Z" fill="#F4E5F7"/>
<path fill-rule="evenodd" clip-rule="evenodd" d="M104.193 16.6407L102.281 26.227H92.3506V16.6407H104.193Z" fill="#DBB9E9"/>
<path fill-rule="evenodd" clip-rule="evenodd" d="M88.2816 12.5162L88.5169 22.3082L92.3506 26.227V16.6407L88.2816 12.5162Z" fill="#EBCFF0"/>
<path fill-rule="evenodd" clip-rule="evenodd" d="M53.5461 5.19629L56.6012 14.9518L65.7796 9.2843L62.5092 0L53.5461 5.19629Z" fill="#F4E5F7"/>
<path fill-rule="evenodd" clip-rule="evenodd" d="M72.7015 11.4942L65.7796 9.2843L62.5092 0L68.7949 2.87687L72.7015 11.4942Z" fill="#EBCFF0"/>
<path fill-rule="evenodd" clip-rule="evenodd" d="M56.6012 14.9518L65.7796 15.5192L72.7015 11.4942L65.7796 9.2843L56.6012 14.9518Z" fill="#DBB9E9"/>
<path fill-rule="evenodd" clip-rule="evenodd" d="M112.321 25.8653L102.46 28.4999L107.719 37.9269L117.122 35.0567L112.321 25.8653Z" fill="#F4E5F7"/>
<path fill-rule="evenodd" clip-rule="evenodd" d="M105.946 43.5612L107.719 37.9269L117.122 35.0567L114.538 41.0593L105.946 43.5612Z" fill="#EBCFF0"/>
<path fill-rule="evenodd" clip-rule="evenodd" d="M102.46 28.4999L101.499 37.6581L105.946 43.5612L107.719 37.9269L102.46 28.4999Z" fill="#DBB9E9"/>
<path fill-rule="evenodd" clip-rule="evenodd" d="M104.498 34.4395L104.037 42.7914L91.3665 40.1468L94.5077 32.2595L104.498 34.4395Z" fill="#F4E5F7"/>
<path fill-rule="evenodd" clip-rule="evenodd" d="M91.3665 40.1468L93.3049 46.3916L101.479 47.5663L104.037 42.7914L91.3665 40.1468Z" fill="#DBB9E9"/>
<path fill-rule="evenodd" clip-rule="evenodd" d="M48.7084 64.8574L43.1848 69.5725L55.7198 68.6799L59.7888 64.5554L48.7084 64.8574Z" fill="#F4E5F7"/>
<path fill-rule="evenodd" clip-rule="evenodd" d="M43.1848 69.5725L45.6799 79.1555L56.187 78.8834L55.7198 68.6799L43.1848 69.5725Z" fill="#DBB9E9"/>
<path fill-rule="evenodd" clip-rule="evenodd" d="M59.7887 64.5554L59.5534 74.3474L56.1869 78.8834L55.7197 68.6799L59.7887 64.5554Z" fill="#EBCFF0"/>
</g>
<defs>
<linearGradient id="paint0_linear_27_684" x1="45.9351" y1="51.6078" x2="82.2535" y2="23.2739" gradientUnits="userSpaceOnUse">
<stop offset="0.03" stop-color="#FF69DF"/>
<stop offset="1" stop-color="#A990FF"/>
</linearGradient>
<linearGradient id="paint1_linear_27_684" x1="126.425" y1="45.7613" x2="135.27" y2="37.1018" gradientUnits="userSpaceOnUse">
<stop offset="0.03" stop-color="#FF69DF"/>
<stop offset="1" stop-color="#A990FF"/>
</linearGradient>
<linearGradient id="paint2_linear_27_684" x1="47.108" y1="166.613" x2="199.039" y2="48.0768" gradientUnits="userSpaceOnUse">
<stop offset="0.03" stop-color="#FF69DF"/>
<stop offset="1" stop-color="#A990FF"/>
</linearGradient>
<radialGradient id="paint3_radial_27_684" cx="0" cy="0" r="1" gradientUnits="userSpaceOnUse" gradientTransform="translate(131.824 128.433) scale(72.0877 8.54878)">
<stop stop-color="#FF8BFF"/>
<stop offset="0.09" stop-color="#E07AE0"/>
<stop offset="0.28" stop-color="#9D559D"/>
<stop offset="0.46" stop-color="#653765"/>
<stop offset="0.62" stop-color="#391F39"/>
<stop offset="0.77" stop-color="#190E19"/>
<stop offset="0.9" stop-color="#060306"/>
<stop offset="0.99"/>
</radialGradient>
<radialGradient id="paint4_radial_27_684" cx="0" cy="0" r="1" gradientUnits="userSpaceOnUse" gradientTransform="translate(135.233 126.375) scale(57.2275 2.21635)">
<stop stop-color="#74409C"/>
<stop offset="0.94" stop-color="white"/>
</radialGradient>
<radialGradient id="paint5_radial_27_684" cx="0" cy="0" r="1" gradientUnits="userSpaceOnUse" gradientTransform="translate(165.73 129.906) scale(32.2498 2.53298)">
<stop stop-color="#74409C"/>
<stop offset="0.94" stop-color="white"/>
</radialGradient>
<radialGradient id="paint6_radial_27_684" cx="0" cy="0" r="1" gradientUnits="userSpaceOnUse" gradientTransform="translate(165.73 129.687) scale(25.6592 1.25958)">
<stop offset="0.62" stop-color="#74409C"/>
<stop offset="0.94" stop-color="white"/>
</radialGradient>
<radialGradient id="paint7_radial_27_684" cx="0" cy="0" r="1" gradientUnits="userSpaceOnUse" gradientTransform="translate(204.037 126.375) scale(17.2716 0.871021)">
<stop stop-color="#74409C"/>
<stop offset="0.94" stop-color="white"/>
</radialGradient>
<radialGradient id="paint8_radial_27_684" cx="0" cy="0" r="1" gradientUnits="userSpaceOnUse" gradientTransform="translate(67.3933 127.08) scale(43.5013 1.24465)">
<stop stop-color="#74409C"/>
<stop offset="0.94" stop-color="white"/>
</radialGradient>
<radialGradient id="paint9_radial_27_684" cx="0" cy="0" r="1" gradientUnits="userSpaceOnUse" gradientTransform="translate(160.238 26.0972) scale(11.9419 16.8618)">
<stop offset="0.25" stop-color="#FFFEAE"/>
<stop offset="0.29" stop-color="#FFF8A8"/>
<stop offset="0.48" stop-color="#FFE794"/>
<stop offset="0.68" stop-color="#FFDC88"/>
<stop offset="0.87" stop-color="#FFD985"/>
<stop offset="0.89" stop-color="#FFD284"/>
<stop offset="0.94" stop-color="#FFC884"/>
<stop offset="1" stop-color="#FFC584"/>
</radialGradient>
<radialGradient id="paint10_radial_27_684" cx="0" cy="0" r="1" gradientUnits="userSpaceOnUse" gradientTransform="translate(159.154 31.2308) scale(10.2718 10.2864)">
<stop offset="0.06" stop-color="white"/>
<stop offset="0.15" stop-color="#FEFBFD"/>
<stop offset="0.99" stop-color="#FFBEDE"/>
</radialGradient>
<linearGradient id="paint11_linear_27_684" x1="159.21" y1="41.63" x2="159.21" y2="31.4631" gradientUnits="userSpaceOnUse">
<stop stop-color="#D486C2"/>
<stop offset="0.94" stop-color="#FFDDD1"/>
</linearGradient>
<linearGradient id="paint12_linear_27_684" x1="159.118" y1="41.859" x2="159.118" y2="40.618" gradientUnits="userSpaceOnUse">
<stop stop-color="#D486C2"/>
<stop offset="0.94" stop-color="#FFDDD1"/>
</linearGradient>
<radialGradient id="paint13_radial_27_684" cx="0" cy="0" r="1" gradientUnits="userSpaceOnUse" gradientTransform="translate(162.461 25.8653) scale(4.40696 4.41319)">
<stop stop-color="#FFFFA9"/>
<stop offset="0.09" stop-color="#E0E094"/>
<stop offset="0.28" stop-color="#9D9D68"/>
<stop offset="0.46" stop-color="#656542"/>
<stop offset="0.62" stop-color="#393926"/>
<stop offset="0.77" stop-color="#191911"/>
<stop offset="0.9" stop-color="#060604"/>
<stop offset="0.99"/>
</radialGradient>
<radialGradient id="paint14_radial_27_684" cx="0" cy="0" r="1" gradientUnits="userSpaceOnUse" gradientTransform="translate(153.765 30.4524) rotate(-22.2584) scale(2.17807 4.11372)">
<stop stop-color="#FFFFA9"/>
<stop offset="0.09" stop-color="#E0E094"/>
<stop offset="0.28" stop-color="#9D9D68"/>
<stop offset="0.46" stop-color="#656542"/>
<stop offset="0.62" stop-color="#393926"/>
<stop offset="0.77" stop-color="#191911"/>
<stop offset="0.9" stop-color="#060604"/>
<stop offset="0.99"/>
</radialGradient>
<linearGradient id="paint15_linear_27_684" x1="159.114" y1="42.2704" x2="159.114" y2="30.7629" gradientUnits="userSpaceOnUse">
<stop stop-color="#D486C2"/>
<stop offset="0.94" stop-color="white"/>
</linearGradient>
<radialGradient id="paint16_radial_27_684" cx="0" cy="0" r="1" gradientUnits="userSpaceOnUse" gradientTransform="translate(158.906 42.241) scale(3.92318 4.63591)">
<stop stop-color="#B3B0D3"/>
<stop offset="0.46" stop-color="#B1ADD1"/>
<stop offset="0.69" stop-color="#ABA6CB"/>
<stop offset="0.87" stop-color="#A299C0"/>
<stop offset="0.98" stop-color="#998CB6"/>
</radialGradient>
<linearGradient id="paint17_linear_27_684" x1="159.088" y1="47.9744" x2="159.088" y2="47.0221" gradientUnits="userSpaceOnUse">
<stop stop-color="#7F7BB5"/>
<stop offset="0.98" stop-color="#685491"/>
</linearGradient>
<radialGradient id="paint18_radial_27_684" cx="0" cy="0" r="1" gradientUnits="userSpaceOnUse" gradientTransform="translate(159.068 47.8646) scale(1.86218 3.46857)">
<stop stop-color="#474B72"/>
<stop offset="0.42" stop-color="#46486F"/>
<stop offset="0.69" stop-color="#453F67"/>
<stop offset="0.92" stop-color="#42305A"/>
<stop offset="0.98" stop-color="#422B55"/>
</radialGradient>
<radialGradient id="paint19_radial_27_684" cx="0" cy="0" r="1" gradientUnits="userSpaceOnUse" gradientTransform="translate(159.21 45.4924) scale(3.64154 6.78284)">
<stop stop-color="#9490C1"/>
<stop offset="0.45" stop-color="#928DBF"/>
<stop offset="0.68" stop-color="#8D86B8"/>
<stop offset="0.85" stop-color="#8479AD"/>
<stop offset="0.98" stop-color="#7A69A0"/>
</radialGradient>
<radialGradient id="paint20_radial_27_684" cx="0" cy="0" r="1" gradientUnits="userSpaceOnUse" gradientTransform="translate(159.393 43.2975) scale(3.79064 7.06057)">
<stop stop-color="#9490C1"/>
<stop offset="0.45" stop-color="#928DBF"/>
<stop offset="0.68" stop-color="#8D86B8"/>
<stop offset="0.85" stop-color="#8479AD"/>
<stop offset="0.98" stop-color="#7A69A0"/>
</radialGradient>
<linearGradient id="paint21_linear_27_684" x1="159.393" y1="44.3476" x2="159.393" y2="41.63" gradientUnits="userSpaceOnUse">
<stop offset="0.02" stop-color="#B1ACC7"/>
<stop offset="1" stop-color="#CCCAE2"/>
</linearGradient>
<linearGradient id="paint22_linear_27_684" x1="159.21" y1="46.1461" x2="159.21" y2="43.9594" gradientUnits="userSpaceOnUse">
<stop offset="0.02" stop-color="#B1ACC7"/>
<stop offset="1" stop-color="#CCCAE2"/>
</linearGradient>
<linearGradient id="paint23_linear_27_684" x1="58.205" y1="126.101" x2="58.205" y2="111.859" gradientUnits="userSpaceOnUse">
<stop stop-color="#FF6E61"/>
<stop offset="0.07" stop-color="#FF745D"/>
<stop offset="0.32" stop-color="#FF8355"/>
<stop offset="0.61" stop-color="#FF8D50"/>
<stop offset="1" stop-color="#FF904F"/>
</linearGradient>
<linearGradient id="paint24_linear_27_684" x1="46.7634" y1="126.101" x2="46.7634" y2="112.032" gradientUnits="userSpaceOnUse">
<stop stop-color="#FF90BD"/>
<stop offset="0.94" stop-color="#F0E2D1"/>
</linearGradient>
<linearGradient id="paint25_linear_27_684" x1="59.5402" y1="-7.29916e-05" x2="59.5402" y2="-7.29916e-05" gradientUnits="userSpaceOnUse">
<stop stop-color="#FF90BD"/>
<stop offset="0.94" stop-color="#F0E2D1"/>
</linearGradient>
<linearGradient id="paint26_linear_27_684" x1="69.4212" y1="3.72665e-05" x2="69.4212" y2="112.218" gradientUnits="userSpaceOnUse">
<stop stop-color="#FF90BD"/>
<stop offset="0.94" stop-color="#F0E2D1"/>
</linearGradient>
<linearGradient id="paint27_linear_27_684" x1="80.6407" y1="-9.32407e-06" x2="80.6407" y2="115.3" gradientUnits="userSpaceOnUse">
<stop stop-color="#FF90BD"/>
<stop offset="0.94" stop-color="#F0E2D1"/>
</linearGradient>
<linearGradient id="paint28_linear_27_684" x1="81.9263" y1="8.13757e-05" x2="81.9263" y2="117.709" gradientUnits="userSpaceOnUse">
<stop stop-color="#FF90BD"/>
<stop offset="0.94" stop-color="#F0E2D1"/>
</linearGradient>
<linearGradient id="paint29_linear_27_684" x1="43.7846" y1="-7.87305e-06" x2="43.7846" y2="111.992" gradientUnits="userSpaceOnUse">
<stop stop-color="#FF90BD"/>
<stop offset="0.94" stop-color="#F0E2D1"/>
</linearGradient>
<linearGradient id="paint30_linear_27_684" x1="38.9436" y1="123.311" x2="38.9436" y2="111.946" gradientUnits="userSpaceOnUse">
<stop stop-color="#FF90BD"/>
<stop offset="0.94" stop-color="#F0E2D1"/>
</linearGradient>
<linearGradient id="paint31_linear_27_684" x1="33.5293" y1="120.779" x2="33.5293" y2="111.903" gradientUnits="userSpaceOnUse">
<stop stop-color="#FF90BD"/>
<stop offset="0.94" stop-color="#F0E2D1"/>
</linearGradient>
<radialGradient id="paint32_radial_27_684" cx="0" cy="0" r="1" gradientUnits="userSpaceOnUse" gradientTransform="translate(31.2231 113.777) scale(0.868137 0.869365)">
<stop stop-color="#391B5C"/>
<stop offset="0.98" stop-color="#2A164A"/>
</radialGradient>
<radialGradient id="paint33_radial_27_684" cx="0" cy="0" r="1" gradientUnits="userSpaceOnUse" gradientTransform="translate(32.8302 0.166007) scale(0.165675 0.165909)">
<stop stop-color="#391B5C"/>
<stop offset="0.98" stop-color="#2A164A"/>
</radialGradient>
<radialGradient id="paint34_radial_27_684" cx="0" cy="0" r="1" gradientUnits="userSpaceOnUse" gradientTransform="translate(34.4405 0.166007) scale(0.165675 0.165909)">
<stop stop-color="#391B5C"/>
<stop offset="0.98" stop-color="#2A164A"/>
</radialGradient>
<radialGradient id="paint35_radial_27_684" cx="0" cy="0" r="1" gradientUnits="userSpaceOnUse" gradientTransform="translate(36.0476 114.594) scale(1.44469 1.44673)">
<stop stop-color="#391B5C"/>
<stop offset="0.98" stop-color="#2A164A"/>
</radialGradient>
<radialGradient id="paint36_radial_27_684" cx="0" cy="0" r="1" gradientUnits="userSpaceOnUse" gradientTransform="translate(37.5684 0.166007) scale(0.165675 0.165909)">
<stop stop-color="#391B5C"/>
<stop offset="0.98" stop-color="#2A164A"/>
</radialGradient>
<radialGradient id="paint37_radial_27_684" cx="0" cy="0" r="1" gradientUnits="userSpaceOnUse" gradientTransform="translate(39.1755 0.166007) scale(0.165675 0.165909)">
<stop stop-color="#391B5C"/>
<stop offset="0.98" stop-color="#2A164A"/>
</radialGradient>
<radialGradient id="paint38_radial_27_684" cx="0" cy="0" r="1" gradientUnits="userSpaceOnUse" gradientTransform="translate(40.7825 0.166007) scale(0.165675 0.165909)">
<stop stop-color="#391B5C"/>
<stop offset="0.98" stop-color="#2A164A"/>
</radialGradient>
<radialGradient id="paint39_radial_27_684" cx="0" cy="0" r="1" gradientUnits="userSpaceOnUse" gradientTransform="translate(42.3929 114.594) scale(1.44469 1.44673)">
<stop stop-color="#391B5C"/>
<stop offset="0.98" stop-color="#2A164A"/>
</radialGradient>
<radialGradient id="paint40_radial_27_684" cx="0" cy="0" r="1" gradientUnits="userSpaceOnUse" gradientTransform="translate(43.9105 0.166007) scale(0.165675 0.165909)">
<stop stop-color="#391B5C"/>
<stop offset="0.98" stop-color="#2A164A"/>
</radialGradient>
<radialGradient id="paint41_radial_27_684" cx="0" cy="0" r="1" gradientUnits="userSpaceOnUse" gradientTransform="translate(45.5208 0.166007) scale(0.165675 0.165909)">
<stop stop-color="#391B5C"/>
<stop offset="0.98" stop-color="#2A164A"/>
</radialGradient>
<radialGradient id="paint42_radial_27_684" cx="0" cy="0" r="1" gradientUnits="userSpaceOnUse" gradientTransform="translate(47.1279 0.166007) scale(0.165675 0.165909)">
<stop stop-color="#391B5C"/>
<stop offset="0.98" stop-color="#2A164A"/>
</radialGradient>
<radialGradient id="paint43_radial_27_684" cx="0" cy="0" r="1" gradientUnits="userSpaceOnUse" gradientTransform="translate(48.7382 114.594) scale(1.44469 1.44673)">
<stop stop-color="#391B5C"/>
<stop offset="0.98" stop-color="#2A164A"/>
</radialGradient>
<radialGradient id="paint44_radial_27_684" cx="0" cy="0" r="1" gradientUnits="userSpaceOnUse" gradientTransform="translate(50.2558 0.166007) scale(0.165675 0.165909)">
<stop stop-color="#391B5C"/>
<stop offset="0.98" stop-color="#2A164A"/>
</radialGradient>
<radialGradient id="paint45_radial_27_684" cx="0" cy="0" r="1" gradientUnits="userSpaceOnUse" gradientTransform="translate(51.8629 0.166007) scale(0.165675 0.165909)">
<stop stop-color="#391B5C"/>
<stop offset="0.98" stop-color="#2A164A"/>
</radialGradient>
<radialGradient id="paint46_radial_27_684" cx="0" cy="0" r="1" gradientUnits="userSpaceOnUse" gradientTransform="translate(53.4732 0.166007) scale(0.165675 0.165909)">
<stop stop-color="#391B5C"/>
<stop offset="0.98" stop-color="#2A164A"/>
</radialGradient>
<radialGradient id="paint47_radial_27_684" cx="0" cy="0" r="1" gradientUnits="userSpaceOnUse" gradientTransform="translate(55.0803 114.594) scale(1.44469 1.44673)">
<stop stop-color="#391B5C"/>
<stop offset="0.98" stop-color="#2A164A"/>
</radialGradient>
<radialGradient id="paint48_radial_27_684" cx="0" cy="0" r="1" gradientUnits="userSpaceOnUse" gradientTransform="translate(56.6011 0.165998) scale(0.868137 0.869365)">
<stop stop-color="#391B5C"/>
<stop offset="0.98" stop-color="#2A164A"/>
</radialGradient>
<radialGradient id="paint49_radial_27_684" cx="0" cy="0" r="1" gradientUnits="userSpaceOnUse" gradientTransform="translate(58.2082 0.165998) scale(0.868137 0.869365)">
<stop stop-color="#391B5C"/>
<stop offset="0.98" stop-color="#2A164A"/>
</radialGradient>
<radialGradient id="paint50_radial_27_684" cx="0" cy="0" r="1" gradientUnits="userSpaceOnUse" gradientTransform="translate(59.8186 0.166007) scale(0.165675 0.165909)">
<stop stop-color="#391B5C"/>
<stop offset="0.98" stop-color="#2A164A"/>
</radialGradient>
<radialGradient id="paint51_radial_27_684" cx="0" cy="0" r="1" gradientUnits="userSpaceOnUse" gradientTransform="translate(61.4256 114.594) scale(1.44469 1.44673)">
<stop stop-color="#391B5C"/>
<stop offset="0.98" stop-color="#2A164A"/>
</radialGradient>
<radialGradient id="paint52_radial_27_684" cx="0" cy="0" r="1" gradientUnits="userSpaceOnUse" gradientTransform="translate(62.9465 0.166007) scale(0.165675 0.165909)">
<stop stop-color="#391B5C"/>
<stop offset="0.98" stop-color="#2A164A"/>
</radialGradient>
<radialGradient id="paint53_radial_27_684" cx="0" cy="0" r="1" gradientUnits="userSpaceOnUse" gradientTransform="translate(64.5535 0.166007) scale(0.165675 0.165909)">
<stop stop-color="#391B5C"/>
<stop offset="0.98" stop-color="#2A164A"/>
</radialGradient>
<radialGradient id="paint54_radial_27_684" cx="0" cy="0" r="1" gradientUnits="userSpaceOnUse" gradientTransform="translate(66.1606 0.166007) scale(0.165675 0.165909)">
<stop stop-color="#391B5C"/>
<stop offset="0.98" stop-color="#2A164A"/>
</radialGradient>
<radialGradient id="paint55_radial_27_684" cx="0" cy="0" r="1" gradientUnits="userSpaceOnUse" gradientTransform="translate(67.7709 114.594) scale(1.44469 1.44673)">
<stop stop-color="#391B5C"/>
<stop offset="0.98" stop-color="#2A164A"/>
</radialGradient>
<radialGradient id="paint56_radial_27_684" cx="0" cy="0" r="1" gradientUnits="userSpaceOnUse" gradientTransform="translate(69.2885 0.165998) scale(0.868137 0.869365)">
<stop stop-color="#391B5C"/>
<stop offset="0.98" stop-color="#2A164A"/>
</radialGradient>
<radialGradient id="paint57_radial_27_684" cx="0" cy="0" r="1" gradientUnits="userSpaceOnUse" gradientTransform="translate(70.899 0.165998) scale(0.868137 0.869365)">
<stop stop-color="#391B5C"/>
<stop offset="0.98" stop-color="#2A164A"/>
</radialGradient>
<radialGradient id="paint58_radial_27_684" cx="0" cy="0" r="1" gradientUnits="userSpaceOnUse" gradientTransform="translate(72.5059 0.165998) scale(0.868137 0.869365)">
<stop stop-color="#391B5C"/>
<stop offset="0.98" stop-color="#2A164A"/>
</radialGradient>
<radialGradient id="paint59_radial_27_684" cx="0" cy="0" r="1" gradientUnits="userSpaceOnUse" gradientTransform="translate(74.113 114.594) scale(1.44469 1.44673)">
<stop stop-color="#391B5C"/>
<stop offset="0.98" stop-color="#2A164A"/>
</radialGradient>
<radialGradient id="paint60_radial_27_684" cx="0" cy="0" r="1" gradientUnits="userSpaceOnUse" gradientTransform="translate(75.5776 0.166007) scale(0.165675 0.165909)">
<stop stop-color="#391B5C"/>
<stop offset="0.98" stop-color="#2A164A"/>
</radialGradient>
<radialGradient id="paint61_radial_27_684" cx="0" cy="0" r="1" gradientUnits="userSpaceOnUse" gradientTransform="translate(77.1846 0.166007) scale(0.165675 0.165909)">
<stop stop-color="#391B5C"/>
<stop offset="0.98" stop-color="#2A164A"/>
</radialGradient>
<radialGradient id="paint62_radial_27_684" cx="0" cy="0" r="1" gradientUnits="userSpaceOnUse" gradientTransform="translate(78.795 0.166007) scale(0.165675 0.165909)">
<stop stop-color="#391B5C"/>
<stop offset="0.98" stop-color="#2A164A"/>
</radialGradient>
<radialGradient id="paint63_radial_27_684" cx="0" cy="0" r="1" gradientUnits="userSpaceOnUse" gradientTransform="translate(80.4021 114.594) scale(1.44469 1.44673)">
<stop stop-color="#391B5C"/>
<stop offset="0.98" stop-color="#2A164A"/>
</radialGradient>
<radialGradient id="paint64_radial_27_684" cx="0" cy="0" r="1" gradientUnits="userSpaceOnUse" gradientTransform="translate(81.9196 0.165998) scale(0.868137 0.869365)">
<stop stop-color="#391B5C"/>
<stop offset="0.98" stop-color="#2A164A"/>
</radialGradient>
<radialGradient id="paint65_radial_27_684" cx="0" cy="0" r="1" gradientUnits="userSpaceOnUse" gradientTransform="translate(83.53 0.166007) scale(0.165675 0.165909)">
<stop stop-color="#391B5C"/>
<stop offset="0.98" stop-color="#2A164A"/>
</radialGradient>
<radialGradient id="paint66_radial_27_684" cx="0" cy="0" r="1" gradientUnits="userSpaceOnUse" gradientTransform="translate(85.137 0.165998) scale(0.868137 0.869365)">
<stop stop-color="#391B5C"/>
<stop offset="0.98" stop-color="#2A164A"/>
</radialGradient>
<radialGradient id="paint67_radial_27_684" cx="0" cy="0" r="1" gradientUnits="userSpaceOnUse" gradientTransform="translate(136.653 115.27) scale(98.7879 16.5537)">
<stop stop-color="#74409C"/>
<stop offset="0.69" stop-color="#DBC7E0"/>
<stop offset="1" stop-color="white"/>
</radialGradient>
<linearGradient id="paint68_linear_27_684" x1="209.039" y1="83.8865" x2="179.578" y2="55.0262" gradientUnits="userSpaceOnUse">
<stop offset="0.02" stop-color="#C289B0"/>
<stop offset="1" stop-color="#FF93AC"/>
</linearGradient>
<linearGradient id="paint69_linear_27_684" x1="208.982" y1="83.7416" x2="179.52" y2="54.8813" gradientUnits="userSpaceOnUse">
<stop offset="0.02" stop-color="#FFDBE7"/>
<stop offset="1" stop-color="#FFE8DE"/>
</linearGradient>
<linearGradient id="paint70_linear_27_684" x1="205.064" y1="75.2218" x2="182.2" y2="52.8237" gradientUnits="userSpaceOnUse">
<stop offset="0.02" stop-color="#C289B0"/>
<stop offset="1" stop-color="#FF93AC"/>
</linearGradient>
<linearGradient id="paint71_linear_27_684" x1="204.974" y1="75.0913" x2="182.109" y2="52.6931" gradientUnits="userSpaceOnUse">
<stop offset="0.02" stop-color="#FFDBE7"/>
<stop offset="1" stop-color="#FFE8DE"/>
</linearGradient>
<linearGradient id="paint72_linear_27_684" x1="199.254" y1="66.2932" x2="183.479" y2="50.8397" gradientUnits="userSpaceOnUse">
<stop offset="0.02" stop-color="#C289B0"/>
<stop offset="1" stop-color="#FF93AC"/>
</linearGradient>
<linearGradient id="paint73_linear_27_684" x1="199.141" y1="66.1817" x2="183.366" y2="50.7282" gradientUnits="userSpaceOnUse">
<stop offset="0.02" stop-color="#FFDBE7"/>
<stop offset="1" stop-color="#FFE8DE"/>
</linearGradient>
<linearGradient id="paint74_linear_27_684" x1="195.366" y1="62.4731" x2="182.674" y2="50.0408" gradientUnits="userSpaceOnUse">
<stop offset="0.02" stop-color="#C289B0"/>
<stop offset="1" stop-color="#FF93AC"/>
</linearGradient>
<linearGradient id="paint75_linear_27_684" x1="195.257" y1="62.3662" x2="182.566" y2="49.9338" gradientUnits="userSpaceOnUse">
<stop offset="0.02" stop-color="#FFE5EE"/>
<stop offset="1" stop-color="#FFE8DE"/>
</linearGradient>
<linearGradient id="paint76_linear_27_684" x1="168.271" y1="72.8326" x2="165.886" y2="70.496" gradientUnits="userSpaceOnUse">
<stop offset="0.02" stop-color="#B1ACC7"/>
<stop offset="1" stop-color="#CCCAE2"/>
</linearGradient>
<linearGradient id="paint77_linear_27_684" x1="167.772" y1="72.3422" x2="166.386" y2="70.9848" gradientUnits="userSpaceOnUse">
<stop stop-color="#A6A3CC"/>
<stop offset="0.98" stop-color="#8C7DAC"/>
</linearGradient>
<linearGradient id="paint78_linear_27_684" x1="137.411" y1="124.369" x2="137.411" y2="113.432" gradientUnits="userSpaceOnUse">
<stop stop-color="#A6A3CC"/>
<stop offset="0.98" stop-color="#8C7DAC"/>
</linearGradient>
<linearGradient id="paint79_linear_27_684" x1="137.196" y1="126.503" x2="137.196" y2="124.369" gradientUnits="userSpaceOnUse">
<stop offset="0.02" stop-color="#B1ACC7"/>
<stop offset="1" stop-color="#CCCAE2"/>
</linearGradient>
<linearGradient id="paint80_linear_27_684" x1="86.8734" y1="83.5752" x2="187.985" y2="83.5752" gradientUnits="userSpaceOnUse">
<stop stop-color="#D4D2E6"/>
<stop offset="0.12" stop-color="#8F87AE"/>
<stop offset="0.91" stop-color="#8F87AE"/>
<stop offset="1" stop-color="#E7E6F1"/>
</linearGradient>
<radialGradient id="paint81_radial_27_684" cx="0" cy="0" r="1" gradientUnits="userSpaceOnUse" gradientTransform="translate(137.417 81.9095) scale(41.5944 41.6532)">
<stop stop-color="#2F3460"/>
<stop offset="0.98" stop-color="#422B55"/>
</radialGradient>
<linearGradient id="paint82_linear_27_684" x1="102.748" y1="119.126" x2="172.666" y2="49.3077" gradientUnits="userSpaceOnUse">
<stop offset="0.03" stop-color="#BB86FF"/>
<stop offset="1" stop-color="#7C9FFF"/>
</linearGradient>
<linearGradient id="paint83_linear_27_684" x1="89.0934" y1="80.6221" x2="185.695" y2="80.6221" gradientUnits="userSpaceOnUse">
<stop offset="0.02" stop-color="#1A0018"/>
<stop offset="1" stop-color="#0B0425"/>
</linearGradient>
<linearGradient id="paint84_linear_27_684" x1="181.123" y1="110.081" x2="182.706" y2="107.903" gradientUnits="userSpaceOnUse">
<stop offset="0.03" stop-color="#BD5AC9"/>
<stop offset="1" stop-color="#A45CFF"/>
</linearGradient>
<linearGradient id="paint85_linear_27_684" x1="128.713" y1="95.8692" x2="150.921" y2="65.3452" gradientUnits="userSpaceOnUse">
<stop offset="0.03" stop-color="#FF9DDF"/>
<stop offset="1" stop-color="#E0C7FF"/>
</linearGradient>
<linearGradient id="paint86_linear_27_684" x1="138.123" y1="92.7633" x2="159.419" y2="63.4923" gradientUnits="userSpaceOnUse">
<stop offset="0.03" stop-color="#FF6BCF"/>
<stop offset="1" stop-color="#B67CFF"/>
</linearGradient>
<linearGradient id="paint87_linear_27_684" x1="104.829" y1="65.7135" x2="108.677" y2="60.4261" gradientUnits="userSpaceOnUse">
<stop offset="0.03" stop-color="#FF6BCF"/>
<stop offset="1" stop-color="#B67CFF"/>
</linearGradient>
<linearGradient id="paint88_linear_27_684" x1="128.227" y1="75.6735" x2="131.922" y2="70.5916" gradientUnits="userSpaceOnUse">
<stop offset="0.03" stop-color="#FF6BCF"/>
<stop offset="1" stop-color="#B67CFF"/>
</linearGradient>
<linearGradient id="paint89_linear_27_684" x1="122.341" y1="73.8098" x2="124.313" y2="71.1015" gradientUnits="userSpaceOnUse">
<stop offset="0.03" stop-color="#FF9DDF"/>
<stop offset="1" stop-color="#E0C7FF"/>
</linearGradient>
<linearGradient id="paint90_linear_27_684" x1="106.791" y1="79.4275" x2="108.006" y2="77.7568" gradientUnits="userSpaceOnUse">
<stop offset="0.03" stop-color="#FF9DDF"/>
<stop offset="1" stop-color="#E0C7FF"/>
</linearGradient>
<linearGradient id="paint91_linear_27_684" x1="139.406" y1="77.7684" x2="179.201" y2="77.7684" gradientUnits="userSpaceOnUse">
<stop offset="0.03" stop-color="#BB86FF"/>
<stop offset="1" stop-color="#7C9FFF"/>
</linearGradient>
<radialGradient id="paint92_radial_27_684" cx="0" cy="0" r="1" gradientUnits="userSpaceOnUse" gradientTransform="translate(154.436 129.855) scale(19.7021 8.48388)">
<stop stop-color="#2F3460"/>
<stop offset="0.98" stop-color="#270C3D"/>
</radialGradient>
<radialGradient id="paint93_radial_27_684" cx="0" cy="0" r="1" gradientUnits="userSpaceOnUse" gradientTransform="translate(160.781 116.657) scale(18.9234 7.39057)">
<stop stop-color="#2F3460"/>
<stop offset="0.64" stop-color="#391B5C"/>
<stop offset="0.98" stop-color="#2A164A"/>
</radialGradient>
<linearGradient id="paint94_linear_27_684" x1="141.042" y1="125.301" x2="174.525" y2="125.301" gradientUnits="userSpaceOnUse">
<stop stop-color="#542F83"/>
<stop offset="0.94" stop-color="white"/>
</linearGradient>
<radialGradient id="paint95_radial_27_684" cx="0" cy="0" r="1" gradientUnits="userSpaceOnUse" gradientTransform="translate(152.875 115.685) scale(3.07161 3.07596)">
<stop stop-color="#635272"/>
<stop offset="0.31" stop-color="#604F6F"/>
<stop offset="0.52" stop-color="#594669"/>
<stop offset="0.7" stop-color="#4C375D"/>
<stop offset="0.86" stop-color="#3A224D"/>
<stop offset="0.98" stop-color="#270C3D"/>
</radialGradient>
<radialGradient id="paint96_radial_27_684" cx="0" cy="0" r="1" gradientUnits="userSpaceOnUse" gradientTransform="translate(150.005 117.265) scale(3.48911 3.49405)">
<stop stop-color="#2F1160"/>
<stop offset="0.98" stop-color="#1D002C"/>
</radialGradient>
<linearGradient id="paint97_linear_27_684" x1="165.085" y1="120.49" x2="178.75" y2="120.49" gradientUnits="userSpaceOnUse">
<stop offset="0.07" stop-color="#F92CFF"/>
<stop offset="0.6" stop-color="#009FFF"/>
<stop offset="0.99" stop-color="#00FF90"/>
</linearGradient>
<linearGradient id="paint98_linear_27_684" x1="152.616" y1="115.636" x2="159.545" y2="115.636" gradientUnits="userSpaceOnUse">
<stop stop-color="#009FFF"/>
<stop offset="0.93" stop-color="#F92CFF"/>
</linearGradient>
<radialGradient id="paint99_radial_27_684" cx="0" cy="0" r="1" gradientUnits="userSpaceOnUse" gradientTransform="translate(154.456 118.928) rotate(-9.47316) scale(7.09547 2.34773)">
<stop stop-color="#003772"/>
<stop offset="0.09" stop-color="#003064"/>
<stop offset="0.37" stop-color="#001B39"/>
<stop offset="0.62" stop-color="#000C19"/>
<stop offset="0.84" stop-color="#000306"/>
<stop offset="0.99"/>
</radialGradient>
<radialGradient id="paint100_radial_27_684" cx="0" cy="0" r="1" gradientUnits="userSpaceOnUse" gradientTransform="translate(152.229 121.38) scale(5.64952 2.20643)">
<stop stop-color="#0F062D"/>
<stop offset="0.98" stop-color="#0E0020"/>
</radialGradient>
<linearGradient id="paint101_linear_27_684" x1="82.5294" y1="50.2058" x2="87.6591" y2="45.9727" gradientUnits="userSpaceOnUse">
<stop offset="0.33" stop-color="#FFB848"/>
<stop offset="0.98" stop-color="#FF7F2C"/>
</linearGradient>
<linearGradient id="paint102_linear_27_684" x1="88.425" y1="58.6366" x2="94.9764" y2="53.2303" gradientUnits="userSpaceOnUse">
<stop stop-color="#FF6E31"/>
<stop offset="0.05" stop-color="#FF7A1F"/>
<stop offset="0.13" stop-color="#FF8610"/>
<stop offset="0.21" stop-color="#FF8D06"/>
<stop offset="0.33" stop-color="#FF9004"/>
<stop offset="0.98" stop-color="#FF7540"/>
</linearGradient>
<linearGradient id="paint103_linear_27_684" x1="87.5426" y1="57.8173" x2="94.4392" y2="52.1261" gradientUnits="userSpaceOnUse">
<stop offset="0.33" stop-color="#FFD157"/>
<stop offset="0.98" stop-color="#FF9340"/>
</linearGradient>
<linearGradient id="paint104_linear_27_684" x1="78.0061" y1="44.7243" x2="83.1357" y2="40.4913" gradientUnits="userSpaceOnUse">
<stop stop-color="#DEBD95"/>
<stop offset="0.2" stop-color="#9C8569"/>
<stop offset="0.4" stop-color="#645543"/>
<stop offset="0.59" stop-color="#393026"/>
<stop offset="0.75" stop-color="#191611"/>
<stop offset="0.89" stop-color="#060504"/>
<stop offset="0.99"/>
</linearGradient>
<linearGradient id="paint105_linear_27_684" x1="96.0822" y1="64.6756" x2="99.5496" y2="61.8142" gradientUnits="userSpaceOnUse">
<stop stop-color="#FFC6B0"/>
<stop offset="1" stop-color="#FFEECC"/>
</linearGradient>
<linearGradient id="paint106_linear_27_684" x1="101.972" y1="68.3073" x2="96.5277" y2="61.7285" gradientUnits="userSpaceOnUse">
<stop offset="0.03" stop-color="#C3005A"/>
<stop offset="1" stop-color="#FF224D"/>
</linearGradient>
<linearGradient id="paint107_linear_27_684" x1="103.801" y1="70.4399" x2="102.441" y2="68.7971" gradientUnits="userSpaceOnUse">
<stop stop-color="#FF224D"/>
<stop offset="0.97" stop-color="#C3005A"/>
</linearGradient>
<radialGradient id="paint108_radial_27_684" cx="0" cy="0" r="1" gradientUnits="userSpaceOnUse" gradientTransform="translate(84.5766 48.734) rotate(-39.6098) scale(1.59444 5.79952)">
<stop stop-color="#FFA93B"/>
<stop offset="0.09" stop-color="#E09433"/>
<stop offset="0.28" stop-color="#9D6824"/>
<stop offset="0.46" stop-color="#654217"/>
<stop offset="0.62" stop-color="#39260D"/>
<stop offset="0.77" stop-color="#191106"/>
<stop offset="0.9" stop-color="#060401"/>
<stop offset="0.99"/>
</radialGradient>
<radialGradient id="paint109_radial_27_684" cx="0" cy="0" r="1" gradientUnits="userSpaceOnUse" gradientTransform="translate(86.2333 48.1366) rotate(-37.9793) scale(0.72505 5.8024)">
<stop stop-color="#FFA93B"/>
<stop offset="0.09" stop-color="#E09433"/>
<stop offset="0.28" stop-color="#9D6824"/>
<stop offset="0.46" stop-color="#654217"/>
<stop offset="0.62" stop-color="#39260D"/>
<stop offset="0.77" stop-color="#191106"/>
<stop offset="0.9" stop-color="#060401"/>
<stop offset="0.99"/>
</radialGradient>
<linearGradient id="paint110_linear_27_684" x1="96.8907" y1="63.0509" x2="96.5115" y2="60.8114" gradientUnits="userSpaceOnUse">
<stop stop-color="#FF5973"/>
<stop offset="1" stop-color="#FF427E"/>
</linearGradient>
<radialGradient id="paint111_radial_27_684" cx="0" cy="0" r="1" gradientUnits="userSpaceOnUse" gradientTransform="translate(177.405 41.1354) rotate(-53.2888) scale(20.9007 2.50707)">
<stop stop-color="#2F3460"/>
<stop offset="0.64" stop-color="#391B5C"/>
<stop offset="0.98" stop-color="#2A164A"/>
</radialGradient>
<linearGradient id="paint112_linear_27_684" x1="173.008" y1="55.0141" x2="167.9" y2="51.2052" gradientUnits="userSpaceOnUse">
<stop offset="0.03" stop-color="#9A007E"/>
<stop offset="0.38" stop-color="#CD0558"/>
<stop offset="1" stop-color="#FF224D"/>
</linearGradient>
<radialGradient id="paint113_radial_27_684" cx="0" cy="0" r="1" gradientUnits="userSpaceOnUse" gradientTransform="translate(161.281 64.941) rotate(-53.2888) scale(0.792645 0.36447)">
<stop stop-color="#2F3460"/>
<stop offset="0.64" stop-color="#391B5C"/>
<stop offset="0.98" stop-color="#2A164A"/>
</radialGradient>
<linearGradient id="paint114_linear_27_684" x1="175.199" y1="44.6554" x2="191.031" y2="23.4842" gradientUnits="userSpaceOnUse">
<stop stop-color="#6052A9"/>
<stop offset="0.06" stop-color="#584B9C"/>
<stop offset="0.29" stop-color="#393064"/>
<stop offset="0.51" stop-color="#201B39"/>
<stop offset="0.71" stop-color="#0E0C19"/>
<stop offset="0.87" stop-color="#030306"/>
<stop offset="0.99"/>
</linearGradient>
<linearGradient id="paint115_linear_27_684" x1="190.985" y1="29.3261" x2="187.399" y2="26.6527" gradientUnits="userSpaceOnUse">
<stop offset="0.43" stop-color="#D8D9FF"/>
<stop offset="0.84" stop-color="#80618E"/>
<stop offset="0.96" stop-color="#E3DCE6"/>
</linearGradient>
<linearGradient id="paint116_linear_27_684" x1="165.377" y1="64.7212" x2="160.784" y2="61.2967" gradientUnits="userSpaceOnUse">
<stop offset="0.01"/>
<stop offset="0.13" stop-color="#030306"/>
<stop offset="0.29" stop-color="#0E0C19"/>
<stop offset="0.49" stop-color="#201B39"/>
<stop offset="0.71" stop-color="#393064"/>
<stop offset="0.94" stop-color="#584B9C"/>
<stop offset="0.99" stop-color="#6052A9"/>
</linearGradient>
<linearGradient id="paint117_linear_27_684" x1="168.353" y1="53.4875" x2="167.351" y2="52.7404" gradientUnits="userSpaceOnUse">
<stop offset="0.03" stop-color="#930045"/>
<stop offset="1" stop-color="#6B004D"/>
</linearGradient>
<radialGradient id="paint118_radial_27_684" cx="0" cy="0" r="1" gradientUnits="userSpaceOnUse" gradientTransform="translate(167.937 53.1805) rotate(-53.2889) scale(4.47729 4.47548)">
<stop stop-color="#391B5C"/>
<stop offset="0.98" stop-color="#2A164A"/>
</radialGradient>
<linearGradient id="paint119_linear_27_684" x1="39.0429" y1="112.138" x2="39.0429" y2="96.4697" gradientUnits="userSpaceOnUse">
<stop offset="0.03" stop-color="#9042FF"/>
<stop offset="1" stop-color="#6E7CFF"/>
</linearGradient>
<linearGradient id="paint120_linear_27_684" x1="36.2563" y1="112.138" x2="36.2563" y2="95.7297" gradientUnits="userSpaceOnUse">
<stop offset="0.03" stop-color="#BB86FF"/>
<stop offset="1" stop-color="#7C9FFF"/>
</linearGradient>
<linearGradient id="paint121_linear_27_684" x1="53.3507" y1="112.327" x2="53.3507" y2="98.9086" gradientUnits="userSpaceOnUse">
<stop stop-color="#7C004D"/>
<stop offset="0.97" stop-color="#AF0059"/>
</linearGradient>
<linearGradient id="paint122_linear_27_684" x1="51.2333" y1="112.327" x2="51.2333" y2="98.9086" gradientUnits="userSpaceOnUse">
<stop offset="0.03" stop-color="#C3005A"/>
<stop offset="1" stop-color="#FF224D"/>
</linearGradient>
<radialGradient id="paint123_radial_27_684" cx="0" cy="0" r="1" gradientUnits="userSpaceOnUse" gradientTransform="translate(207.945 92.2523) scale(7.6343 7.96365)">
<stop stop-color="#D80E4D"/>
<stop offset="0.44" stop-color="#D40B4F"/>
<stop offset="0.81" stop-color="#CA0455"/>
<stop offset="0.97" stop-color="#C3005A"/>
</radialGradient>
<linearGradient id="paint124_linear_27_684" x1="191.278" y1="92.8728" x2="212.422" y2="92.8728" gradientUnits="userSpaceOnUse">
<stop stop-color="#FFA990"/>
<stop offset="0.01" stop-color="#F5A28A"/>
<stop offset="0.05" stop-color="#C78470"/>
<stop offset="0.1" stop-color="#9C6758"/>
<stop offset="0.14" stop-color="#774E43"/>
<stop offset="0.2" stop-color="#563930"/>
<stop offset="0.25" stop-color="#3B2721"/>
<stop offset="0.32" stop-color="#251815"/>
<stop offset="0.39" stop-color="#140D0B"/>
<stop offset="0.49" stop-color="#080504"/>
<stop offset="0.62" stop-color="#010101"/>
<stop offset="0.99"/>
</linearGradient>
<radialGradient id="paint125_radial_27_684" cx="0" cy="0" r="1" gradientUnits="userSpaceOnUse" gradientTransform="translate(206.128 95.9421) scale(9.2375 9.63603)">
<stop stop-color="#FF224D"/>
<stop offset="0.28" stop-color="#FB204D"/>
<stop offset="0.51" stop-color="#F11A4F"/>
<stop offset="0.73" stop-color="#DF1053"/>
<stop offset="0.94" stop-color="#C70259"/>
<stop offset="0.97" stop-color="#C3005A"/>
</radialGradient>
<linearGradient id="paint126_linear_27_684" x1="189.536" y1="96.1478" x2="214.248" y2="96.1478" gradientUnits="userSpaceOnUse">
<stop stop-color="#FFA990"/>
<stop offset="0.01" stop-color="#F5A28A"/>
<stop offset="0.05" stop-color="#C78470"/>
<stop offset="0.1" stop-color="#9C6758"/>
<stop offset="0.14" stop-color="#774E43"/>
<stop offset="0.2" stop-color="#563930"/>
<stop offset="0.25" stop-color="#3B2721"/>
<stop offset="0.32" stop-color="#251815"/>
<stop offset="0.39" stop-color="#140D0B"/>
<stop offset="0.49" stop-color="#080504"/>
<stop offset="0.62" stop-color="#010101"/>
<stop offset="0.99"/>
</linearGradient>
<linearGradient id="paint127_linear_27_684" x1="202.2" y1="99.7647" x2="202.2" y2="97.3756" gradientUnits="userSpaceOnUse">
<stop offset="0.03" stop-color="#930045"/>
<stop offset="1" stop-color="#9C004D"/>
</linearGradient>
<linearGradient id="paint128_linear_27_684" x1="191.278" y1="112.224" x2="212.73" y2="112.224" gradientUnits="userSpaceOnUse">
<stop stop-color="#FFE3C9"/>
<stop offset="0.22" stop-color="#FFAEA6"/>
<stop offset="0.32" stop-color="#FFBFB1"/>
<stop offset="0.49" stop-color="#FFD9C2"/>
<stop offset="0.59" stop-color="#FFE3C9"/>
<stop offset="1" stop-color="#FFE8DE"/>
</linearGradient>
<linearGradient id="paint129_linear_27_684" x1="192.587" y1="126.012" x2="210.676" y2="126.012" gradientUnits="userSpaceOnUse">
<stop stop-color="#FFE8CD"/>
<stop offset="0.18" stop-color="#FF959C"/>
<stop offset="1" stop-color="#FFE8CD"/>
</linearGradient>
<linearGradient id="paint130_linear_27_684" x1="189.536" y1="94.0175" x2="215.209" y2="94.0175" gradientUnits="userSpaceOnUse">
<stop stop-color="#FF5973"/>
<stop offset="1" stop-color="#FF427E"/>
</linearGradient>
<linearGradient id="paint131_linear_27_684" x1="191.278" y1="92.0101" x2="212.73" y2="92.0101" gradientUnits="userSpaceOnUse">
<stop stop-color="#FF5973"/>
<stop offset="1" stop-color="#FF427E"/>
</linearGradient>
<linearGradient id="paint132_linear_27_684" x1="3.58526" y1="131.593" x2="20.0644" y2="118.738" gradientUnits="userSpaceOnUse">
<stop offset="0.03" stop-color="#FF69DF"/>
<stop offset="1" stop-color="#A990FF"/>
</linearGradient>
<linearGradient id="paint133_linear_27_684" x1="76.4557" y1="79.0924" x2="79.67" y2="73.5284" gradientUnits="userSpaceOnUse">
<stop offset="0.03" stop-color="#FFBD00"/>
<stop offset="1" stop-color="#FFE727"/>
</linearGradient>
<linearGradient id="paint134_linear_27_684" x1="82.8276" y1="126.649" x2="82.8276" y2="78.7108" gradientUnits="userSpaceOnUse">
<stop stop-color="#2D2F76"/>
<stop offset="0.98" stop-color="#531D68"/>
</linearGradient>
<linearGradient id="paint135_linear_27_684" x1="82.3836" y1="126.506" x2="82.3836" y2="78.5714" gradientUnits="userSpaceOnUse">
<stop stop-color="#593C9C"/>
<stop offset="0.98" stop-color="#5C0C77"/>
</linearGradient>
<linearGradient id="paint136_linear_27_684" x1="81.7508" y1="125.7" x2="81.7508" y2="79.3778" gradientUnits="userSpaceOnUse">
<stop stop-color="#FFA0AA"/>
<stop offset="1" stop-color="#FFCCA9"/>
</linearGradient>
<linearGradient id="paint137_linear_27_684" x1="78.2847" y1="3.84851e-05" x2="78.2847" y2="3.84851e-05" gradientUnits="userSpaceOnUse">
<stop stop-color="#2D2F76"/>
<stop offset="0.98" stop-color="#531D68"/>
</linearGradient>
<linearGradient id="paint138_linear_27_684" x1="77.8408" y1="126.506" x2="77.8408" y2="78.5714" gradientUnits="userSpaceOnUse">
<stop offset="0.02" stop-color="#6B2289"/>
<stop offset="1" stop-color="#594A9C"/>
</linearGradient>
<linearGradient id="paint139_linear_27_684" x1="87.165" y1="126.954" x2="87.165" y2="77.9144" gradientUnits="userSpaceOnUse">
<stop offset="0.03" stop-color="#BB86FF"/>
<stop offset="1" stop-color="#7C9FFF"/>
</linearGradient>
<linearGradient id="paint140_linear_27_684" x1="67.6087" y1="79.2318" x2="70.2253" y2="74.7023" gradientUnits="userSpaceOnUse">
<stop stop-color="#FE0173"/>
<stop offset="1" stop-color="#D842FF"/>
</linearGradient>
<clipPath id="clip0_27_684">
<rect width="235" height="149" fill="white"/>
</clipPath>
</defs>
</svg>
